<?xml version="1.0" encoding="UTF-8" standalone="no"?>
<!-- Created with Inkscape (http://www.inkscape.org/) -->

<svg
   width="8mm"
   height="8mm"
   viewBox="0 0 8 8"
   version="1.1"
   id="svg1"
   inkscape:version="1.4 (86a8ad7, 2024-10-11)"
   sodipodi:docname="label-blue-payload-bludgeon.svg"
   xmlns:inkscape="http://www.inkscape.org/namespaces/inkscape"
   xmlns:sodipodi="http://sodipodi.sourceforge.net/DTD/sodipodi-0.dtd"
   xmlns="http://www.w3.org/2000/svg"
   xmlns:svg="http://www.w3.org/2000/svg">
  <sodipodi:namedview
     id="namedview1"
     pagecolor="#ffffff"
     bordercolor="#666666"
     borderopacity="1.0"
     inkscape:showpageshadow="2"
     inkscape:pageopacity="0.0"
     inkscape:pagecheckerboard="0"
     inkscape:deskcolor="#d1d1d1"
     inkscape:document-units="mm"
     inkscape:zoom="4.1870091"
     inkscape:cx="33.914424"
     inkscape:cy="96.847174"
     inkscape:window-width="1297"
     inkscape:window-height="1211"
     inkscape:window-x="641"
     inkscape:window-y="106"
     inkscape:window-maximized="0"
     inkscape:current-layer="layer1" />
  <defs
     id="defs1" />
  <g
     inkscape:label="Layer 1"
     inkscape:groupmode="layer"
     id="layer1">
    <g
       id="g1">
      <ellipse
         style="fill:none;stroke:#939393;stroke-width:0.331356;stroke-dasharray:none;stroke-opacity:1;paint-order:markers stroke fill"
         id="path1"
         cx="3.9999998"
         cy="4"
         rx="3.8343217"
         ry="3.834322" />
      <path
         style="fill:#1e1e1e;fill-opacity:1;stroke:#000000;stroke-width:0.065;stroke-linecap:butt;stroke-linejoin:miter;stroke-dasharray:none;stroke-opacity:1"
         d="m 2.4758515,5.8790778 c -0.064136,0.019465 -0.128272,0.03893 -0.1924081,0.058394 -0.00713,0.00216 -0.014253,0.00433 -0.021379,0.00649 -0.00713,0.00216 -0.015972,0.00137 -0.021379,0.00649 -0.00765,0.00724 -0.00724,0.020625 -0.01489,0.027866 -0.010814,0.010242 -0.031943,0.00273 -0.042757,0.012977 -0.00765,0.00724 -0.00993,0.018576 -0.014891,0.027867 -0.00497,0.00929 -0.00993,0.018577 -0.014891,0.027867 -0.00497,0.00929 -0.0082,0.019731 -0.01489,0.027866 -0.015578,0.018946 -0.046343,0.033995 -0.05116,0.062222 -0.00125,0.00734 0.010002,0.01481 0.00649,0.021378 -0.00351,0.00657 -0.017871,-8.38e-5 -0.021379,0.00649 -0.00351,0.00657 0.00774,0.014036 0.00649,0.021379 -0.00177,0.010382 -0.00724,0.020625 -0.01489,0.027866 -0.00541,0.00512 -0.021176,-9.512e-4 -0.021379,0.00649 -6.002e-4,0.022333 0.018357,0.041822 0.019465,0.064136 5.273e-4,0.010518 -0.013119,0.017486 -0.014891,0.027867 -6.213e-4,0.00367 0.013111,0.03769 0.012977,0.042757 -4.55e-4,0.016648 -0.00923,0.032614 -0.0084,0.049246 7.417e-4,0.014875 0.00865,0.028505 0.012976,0.042757 0.00216,0.00713 0.00433,0.014251 0.00649,0.021378 0.012976,0.042757 0.025953,0.085515 0.03893,0.1282723 0.00433,0.014251 0.00865,0.028505 0.012976,0.042757 0.00433,0.014251 0.00273,0.031943 0.012977,0.042757 0.00512,0.00541 0.01481,-0.010002 0.021379,-0.00649 0.00649,0.00347 0.00581,0.035192 0.012977,0.042757 0.071489,0.075471 -0.00841,-0.022407 0.049245,0.0084 0.00657,0.00351 0.00137,0.015973 0.00649,0.021378 0.00724,0.00765 0.018577,0.00993 0.027866,0.01489 0.00929,0.00497 0.017785,0.011846 0.027868,0.014891 0.09337,0.028203 0.013219,-0.010846 0.077113,0.023292 0.00929,0.00497 0.021778,0.0063 0.027867,0.01489 0.00861,0.012152 0.00437,0.030604 0.012976,0.042757 0.015634,0.022073 0.060042,0.014171 0.077113,0.023292 0.067683,0.036166 0.00317,0.033321 0.062222,0.05116 0.015942,0.00482 0.033305,0.00359 0.049246,0.0084 0.1204242,0.036375 -0.06469,-0.0066 0.055734,0.029781 0.015942,0.00482 0.032599,0.00795 0.049245,0.0084 0.00744,1.984e-4 0.01425,-0.00864 0.021379,-0.00649 0.020164,0.00609 0.035939,0.022581 0.055734,0.029781 0.106067,0.038578 0.011183,3.056e-4 0.070624,0.00191 0.016648,4.549e-4 0.033596,0.00271 0.049245,0.0084 0.019795,0.0072 0.035939,0.022581 0.055734,0.029781 0.015649,0.00569 0.03283,0.0056 0.049245,0.0084 0.03283,0.0056 0.065661,0.011203 0.098491,0.016804 0.016417,0.0028 0.033305,0.00359 0.049245,0.0084 0.010079,0.00304 0.017485,0.01312 0.027867,0.014891 0.00734,0.00125 0.014252,-0.00433 0.021379,-0.00649 0.014252,-0.00433 0.028505,-0.00865 0.042757,-0.012976 0.014252,-0.00433 0.027934,-0.011529 0.042757,-0.012977 0.023439,-0.00229 0.047186,0.0042 0.070625,0.00191 0.014823,-0.00145 0.027882,-0.012234 0.042757,-0.012977 0.016632,-8.258e-4 0.032672,0.010019 0.049245,0.0084 0.022236,-0.00217 0.041821,-0.018357 0.064136,-0.019465 0.010523,-5.079e-4 0.017348,0.015414 0.027867,0.01489 0.022314,-0.00111 0.042757,-0.012977 0.064136,-0.019465 0.014251,-0.00433 0.027868,-0.01338 0.042757,-0.012976 0.010526,2.853e-4 0.017339,0.014604 0.027866,0.01489 0.014888,4.038e-4 0.028505,-0.00865 0.042757,-0.012977 0.00713,-0.00216 0.014251,-0.00433 0.021378,-0.00649 0.05701,-0.017302 0.1140197,-0.034604 0.1710296,-0.051906 0.021378,-0.00649 0.042757,-0.012976 0.064136,-0.019465 0.021378,-0.00649 0.044969,-0.00798 0.064136,-0.019465 0.00903,-0.00543 0.00724,-0.020625 0.01489,-0.027866 0.010814,-0.010242 0.031944,-0.00273 0.042757,-0.012976 0.0052,-0.00493 0.02549,-0.052694 0.029781,-0.055734 0.012154,-0.00861 0.030604,-0.00437 0.042757,-0.012976 0.00859,-0.00609 0.0082,-0.019731 0.01489,-0.027866 0.010575,-0.012866 0.022681,-0.024729 0.036269,-0.034355 0.00607,-0.0043 0.015973,-0.00137 0.021378,-0.00649 0.00765,-0.00724 0.00993,-0.018576 0.01489,-0.027866 0.00993,-0.018576 0.019854,-0.037156 0.029781,-0.055734 0.00497,-0.00929 0.00993,-0.018576 0.01489,-0.027866 0.00497,-0.00929 0.013119,-0.017486 0.01489,-0.027866 0.00125,-0.00734 -0.00774,-0.014036 -0.00649,-0.021378 0.00177,-0.010382 0.014604,-0.017339 0.014891,-0.027867 4.037e-4,-0.014888 -0.00865,-0.028505 -0.012977,-0.042757 -0.012977,-0.042757 -0.025953,-0.085515 -0.03893,-0.1282723 -0.015139,-0.049883 -0.030279,-0.099767 -0.045418,-0.1496507 -0.00216,-0.00713 -0.00433,-0.014251 -0.00649,-0.021379 -0.00433,-0.014251 -0.00533,-0.029978 -0.012976,-0.042757 -0.00856,-0.014285 -0.024729,-0.022681 -0.034356,-0.036269 -0.0043,-0.00607 -0.00137,-0.01597 -0.00649,-0.021378 -0.00724,-0.00765 -0.020625,-0.00724 -0.027866,-0.01489 -0.010242,-0.010814 -0.00273,-0.031944 -0.012976,-0.042757 -0.00724,-0.00765 -0.020625,-0.00724 -0.027866,-0.01489 -0.010242,-0.010814 -0.00273,-0.031943 -0.012977,-0.042757 -0.00724,-0.00765 -0.020625,-0.00724 -0.027866,-0.01489 -0.00512,-0.00541 -0.00137,-0.01597 -0.00649,-0.021378 -0.014486,-0.015293 -0.041248,-0.014487 -0.055734,-0.029781 -0.00717,-0.00757 -0.00649,-0.03929 -0.012977,-0.042757 -0.00657,-0.00351 -0.01481,0.010002 -0.021378,0.00649 -0.00657,-0.00351 -0.00433,-0.014251 -0.00649,-0.021378 -0.00433,-0.014251 -0.00865,-0.028505 -0.012977,-0.042757 -0.00216,-0.00713 -0.00137,-0.015973 -0.00649,-0.021378 -0.00724,-0.00765 -0.020625,-0.00724 -0.027866,-0.01489 -0.00512,-0.00541 -0.00433,-0.014251 -0.00649,-0.021378 -0.00433,-0.014251 -0.00865,-0.028505 -0.012977,-0.042757 -0.012976,-0.042757 -0.025953,-0.085516 -0.03893,-0.1282723 -0.015139,-0.049883 -0.030279,-0.099767 -0.045418,-0.1496508 -0.00216,-0.00713 -0.010002,-0.014809 -0.00649,-0.021378 0.00351,-0.00657 0.01787,8.38e-5 0.021378,-0.00649 0.00351,-0.00657 -0.010002,-0.01481 -0.00649,-0.021378 0.00702,-0.013135 0.035738,1.612e-4 0.042757,-0.012977 0.00351,-0.00657 -0.00774,-0.014036 -0.00649,-0.021378 0.00177,-0.010382 0.013119,-0.017486 0.014891,-0.027867 0.00125,-0.00734 -0.00774,-0.014036 -0.00649,-0.021379 0.00177,-0.010382 0.013119,-0.017486 0.01489,-0.027866 0.00125,-0.00734 -0.00774,-0.014036 -0.00649,-0.021378 0.017484,-0.102474 0.00547,0.023299 0.036269,-0.034355 0.00351,-0.00657 -0.00669,-0.013936 -0.00649,-0.021378 4.549e-4,-0.016648 0.00359,-0.033304 0.0084,-0.049245 0.00304,-0.010078 0.014604,-0.017339 0.01489,-0.027866 4.032e-4,-0.01489 -0.01338,-0.027868 -0.012976,-0.042757 2.853e-4,-0.010527 0.00993,-0.018576 0.01489,-0.027866 0.00497,-0.00929 0.00724,-0.020625 0.01489,-0.027866 0.00541,-0.00512 0.017871,8.37e-5 0.021378,-0.00649 0.00347,-0.00649 -0.014729,-0.032485 -0.012976,-0.042757 3.873e-4,-0.00227 0.028731,-0.052259 0.029781,-0.055734 0.00482,-0.015942 5.556e-4,-0.034559 0.0084,-0.049246 0.00351,-0.00657 0.020125,8.523e-4 0.021378,-0.00649 0.0025,-0.014682 -0.015481,-0.028075 -0.012977,-0.042757 0.00125,-0.00734 0.020125,8.522e-4 0.021378,-0.00649 0.0025,-0.014682 -0.015481,-0.028075 -0.012977,-0.042757 0.00125,-0.00734 0.017871,8.37e-5 0.021378,-0.00649 0.00351,-0.00657 -0.00774,-0.014036 -0.00649,-0.021378 0.00177,-0.010382 0.00993,-0.018576 0.01489,-0.027866 0.00993,-0.018576 0.019854,-0.037156 0.029781,-0.055734 0.00497,-0.00929 0.013119,-0.017486 0.01489,-0.027866 0.00125,-0.00734 -0.00433,-0.014251 -0.00649,-0.021378 0.00993,-0.018576 0.02369,-0.03557 0.029781,-0.055734 0.00215,-0.00713 -0.00774,-0.014036 -0.00649,-0.021378 0.00177,-0.010382 0.00993,-0.018576 0.014891,-0.027867 0.00497,-0.00929 0.00993,-0.018576 0.01489,-0.027866 0.01489,-0.027866 0.029781,-0.055734 0.044671,-0.083601 0.034149,-0.063909 -0.00499,0.013725 0.038183,-0.1049794 0.0036,-0.0099 0.014604,-0.017339 0.01489,-0.027866 4.031e-4,-0.01489 -0.01338,-0.027868 -0.012977,-0.042757 0.00134,-0.049536 0.049818,-0.012685 0.05116,-0.062222 4.038e-4,-0.014888 -0.01338,-0.027868 -0.012976,-0.042757 2.853e-4,-0.010527 0.013119,-0.017486 0.01489,-0.027866 0.00125,-0.00734 -0.00433,-0.014251 -0.00649,-0.021378 6.408e-4,-0.023542 -0.00382,-0.047782 0.00191,-0.070625 0.031695,-0.1263583 0.021378,-0.00649 0.044671,-0.083601 0.043833,-0.02506 -0.00205,-0.047409 0.00191,-0.070623 0.00177,-0.010382 0.013119,-0.017486 0.01489,-0.027866 0.00125,-0.00734 -0.00774,-0.014036 -0.00649,-0.021378 0.00177,-0.010382 0.013119,-0.017486 0.01489,-0.027867 0.00125,-0.00734 -0.00433,-0.014251 -0.00649,-0.021378 0.0028,-0.016415 0.00359,-0.033304 0.0084,-0.049245 0.00304,-0.010079 0.015415,-0.017347 0.01489,-0.027866 -0.00111,-0.022315 -0.023221,-0.042113 -0.019465,-0.064136 0.0028,-0.016415 0.028421,-0.019668 0.036269,-0.034355 0.00351,-0.00657 -0.00774,-0.014039 -0.00649,-0.021378 0.00177,-0.010382 0.013119,-0.017486 0.01489,-0.027866 0.00125,-0.00734 -0.010002,-0.01481 -0.00649,-0.021378 0.00351,-0.00657 0.01787,8.38e-5 0.021378,-0.00649 0.00347,-0.00649 -0.014729,-0.032486 -0.012976,-0.042757 0.00177,-0.010382 0.013119,-0.017486 0.014891,-0.027867 0.00125,-0.00734 -0.010002,-0.01481 -0.00649,-0.021379 0.030809,-0.057658 0.018792,0.068116 0.036269,-0.034355 0.00125,-0.00734 -0.00433,-0.014251 -0.00649,-0.021378 0.00993,-0.018576 0.02369,-0.03557 0.029781,-0.055734 0.00215,-0.00713 -0.00774,-0.014036 -0.00649,-0.021378 0.00354,-0.020765 0.026238,-0.034969 0.029781,-0.055734 0.00125,-0.00734 -0.00774,-0.014039 -0.00649,-0.021378 0.00177,-0.010382 0.013119,-0.017486 0.01489,-0.027866 0.00125,-0.00734 -0.00433,-0.014251 -0.00649,-0.021378 0.00497,-0.00929 0.013119,-0.017486 0.01489,-0.027866 0.00125,-0.00734 -0.00774,-0.014036 -0.00649,-0.021379 0.017484,-0.102474 0.00547,0.023299 0.036269,-0.034355 0.00785,-0.014686 0.00795,-0.032599 0.0084,-0.049246 1.984e-4,-0.00744 -0.010002,-0.01481 -0.00649,-0.021378 0.00351,-0.00657 0.017871,8.38e-5 0.021378,-0.00649 0.030809,-0.057658 -0.067072,0.022237 0.0084,-0.049245 0.00541,-0.00512 0.020125,8.522e-4 0.021378,-0.00649 0.0025,-0.014682 -0.01338,-0.027868 -0.012977,-0.042757 2.853e-4,-0.010527 0.011845,-0.017784 0.01489,-0.027867 0.00482,-0.015942 5.547e-4,-0.034559 0.0084,-0.049245 0.00351,-0.00657 0.017871,8.38e-5 0.021378,-0.00649 0.015695,-0.029375 0.00111,-0.069116 0.016804,-0.098491 0.00351,-0.00657 0.01787,8.38e-5 0.021378,-0.00649 0.00351,-0.00657 -0.00774,-0.014039 -0.00649,-0.021379 3.873e-4,-0.00227 0.028731,-0.05226 0.029781,-0.055734 0.00963,-0.031881 0.00718,-0.066609 0.016804,-0.098491 0.00609,-0.020164 0.02369,-0.03557 0.029781,-0.055734 0.00482,-0.015942 5.546e-4,-0.034559 0.0084,-0.049245 0.00351,-0.00657 0.01787,8.38e-5 0.021378,-0.00649 0.00351,-0.00657 -0.00774,-0.014036 -0.00649,-0.021378 0.00177,-0.010382 0.00993,-0.018576 0.01489,-0.027867 0.00497,-0.00929 0.00993,-0.018576 0.01489,-0.027866 0.00497,-0.00929 0.013119,-0.017486 0.01489,-0.027867 0.00125,-0.00734 -0.00774,-0.014038 -0.00649,-0.021379 0.00177,-0.010382 0.00993,-0.018578 0.01489,-0.027867 0.00497,-0.00929 0.0082,-0.019731 0.01489,-0.027867 0.024851,-0.030225 0.040478,-0.026861 0.05116,-0.062222 0.00482,-0.015942 0.00795,-0.032599 0.0084,-0.049245 1.955e-4,-0.00745 -0.010002,-0.01481 -0.00649,-0.021379 0.00351,-0.00657 0.01597,-0.00137 0.021378,-0.00649 0.00765,-0.00724 0.00993,-0.018577 0.01489,-0.027866 0.00497,-0.00929 0.013119,-0.017486 0.01489,-0.027867 0.00125,-0.00734 -0.010002,-0.01481 -0.00649,-0.021379 0.00351,-0.00657 0.015301,-0.00219 0.021378,-0.00649 0.012088,-0.011454 0.02418,-0.022903 0.036269,-0.034356 -0.00216,-0.00713 -0.010002,-0.01481 -0.00649,-0.021379 0.00351,-0.00657 0.01597,-0.00137 0.021378,-0.00649 0.00765,-0.00724 0.00724,-0.020624 0.01489,-0.027867 0.00541,-0.00512 0.01787,8.37e-5 0.021378,-0.00649 0.00351,-0.00657 -0.00774,-0.014038 -0.00649,-0.021379 0.017484,-0.102474 0.00547,0.023299 0.036269,-0.034356 0.00351,-0.00657 -0.010002,-0.014809 -0.00649,-0.021378 0.00351,-0.00657 0.017871,8.38e-5 0.021378,-0.00649 0.00351,-0.00657 -0.011894,-0.016258 -0.00649,-0.021379 0.010814,-0.010242 0.033297,-0.00147 0.042757,-0.012977 0.010575,-0.012866 0.00359,-0.033305 0.0084,-0.049245 0.00304,-0.010078 0.00993,-0.018578 0.01489,-0.027867 0.049386,-0.092423 -0.017097,0.016195 0.036269,-0.034356 0.075471,-0.071489 -0.022407,0.00841 0.0084,-0.049245 0.00351,-0.00657 0.01787,8.37e-5 0.021378,-0.00649 0.00351,-0.00657 -0.010002,-0.01481 -0.00649,-0.021379 0.00702,-0.013137 0.035738,1.602e-4 0.042757,-0.012977 0.00351,-0.00657 -0.010002,-0.014809 -0.00649,-0.021379 0.00351,-0.00657 0.01787,8.38e-5 0.021378,-0.00649 0.030809,-0.057658 -0.067069,0.022247 0.0084,-0.049245 0.044664,-0.042307 -4.659e-4,0.067914 0.057648,-0.040843 0.00351,-0.00657 -0.010002,-0.014809 -0.00649,-0.021379 0.00351,-0.00657 0.017871,8.38e-5 0.021378,-0.00649 0.00351,-0.00657 -0.010002,-0.01481 -0.00649,-0.021379 0.00351,-0.00657 0.01787,8.38e-5 0.021378,-0.00649 0.00351,-0.00657 -0.010002,-0.01481 -0.00649,-0.021379 0.00702,-0.013137 0.035738,1.602e-4 0.042757,-0.012976 0.00351,-0.00657 -0.010002,-0.01481 -0.00649,-0.021379 0.00351,-0.00657 0.017871,8.38e-5 0.021378,-0.00649 0.00351,-0.00657 -0.010002,-0.01481 -0.00649,-0.021379 0.00351,-0.00657 0.015301,-0.00219 0.021378,-0.00649 0.013587,-0.00963 0.028421,-0.019669 0.036269,-0.034356 0.00351,-0.00657 -0.010002,-0.01481 -0.00649,-0.021379 0.00702,-0.013136 0.035738,1.602e-4 0.042757,-0.012976 0.00351,-0.00657 -0.010002,-0.01481 -0.00649,-0.021379 0.00702,-0.013137 0.035738,1.602e-4 0.042757,-0.012977 0.00351,-0.00657 -0.010002,-0.01481 -0.00649,-0.021379 0.00702,-0.013137 0.035738,1.601e-4 0.042757,-0.012977 0.00351,-0.00657 -0.010002,-0.01481 -0.00649,-0.021378 0.00351,-0.00657 0.01787,8.38e-5 0.021378,-0.00649 0.00351,-0.00657 -0.010002,-0.01481 -0.00649,-0.021379 0.00351,-0.00657 0.014251,-0.00433 0.021378,-0.00649 0.00713,-0.00216 0.014251,-0.00433 0.021378,-0.00649 0.00713,-0.00216 0.017871,8.37e-5 0.021378,-0.00649 0.00351,-0.00657 -0.010002,-0.014809 -0.00649,-0.021379 0.00351,-0.00657 0.014251,-0.00433 0.021378,-0.00649 0.00713,-0.00216 0.014251,-0.00433 0.021378,-0.00649 0.00713,-0.00216 0.014251,-0.00433 0.021378,-0.00649 0.00713,-0.00216 0.01787,8.38e-5 0.021378,-0.00649 0.00351,-0.00657 8.38e-5,-0.017871 -0.00649,-0.021379 -0.00657,-0.00351 -0.01481,0.010002 -0.021378,0.00649 -0.00657,-0.00351 -0.00433,-0.014253 -0.00649,-0.021379 -0.014251,0.00433 -0.028075,0.015481 -0.042757,0.012976 -0.00734,-0.00125 8.38e-5,-0.01787 -0.00649,-0.021378 -0.00657,-0.00351 -0.013936,0.00669 -0.021378,0.00649 -0.016648,-4.549e-4 -0.032599,-0.00795 -0.049246,-0.0084 -0.00744,-1.985e-4 -0.014036,0.00774 -0.021378,0.00649 -0.010382,-0.00177 -0.017486,-0.013119 -0.027867,-0.014891 -0.00734,-0.00125 -0.014251,0.00433 -0.021378,0.00649 -0.00713,0.00216 -0.014251,0.00433 -0.021378,0.00649 -0.00713,0.00216 -0.014036,0.00774 -0.021378,0.00649 -0.010382,-0.00177 -0.017486,-0.013119 -0.027867,-0.014891 -0.060645,-0.010347 0.038134,0.0562 -0.070625,-0.00191 -0.00657,-0.00351 8.38e-5,-0.01787 -0.00649,-0.021378 -0.00657,-0.00351 -0.014036,0.00774 -0.021378,0.00649 -0.010382,-0.00177 -0.017485,-0.013118 -0.027867,-0.014891 -0.010272,-0.001753 -0.03627,0.016442 -0.042757,0.0129765 -0.00657,-0.00351 8.38e-5,-0.0178705 -0.00649,-0.0213791 -0.013138,-0.007019 -0.029621,0.019996 -0.042757,0.0129766 -0.057658,-0.0308091 0.06812,-0.0187825 -0.034355,-0.0362692 -0.010272,-0.001753 -0.03627,0.016442 -0.042757,0.0129765 -0.00657,-0.003512 8.38e-5,-0.0178705 -0.00649,-0.0213781 -0.00657,-0.003512 -0.014036,0.00774 -0.021378,0.006488 -0.010382,-0.001771 -0.017486,-0.0131194 -0.027867,-0.014891 -0.00734,-0.001252 -0.014036,0.00774 -0.021378,0.006488 -0.102474,-0.0174838 0.023302,-0.005463 -0.034355,-0.0362691 -0.00657,-0.003512 -0.01481,0.010002 -0.021378,0.006488 -0.00657,-0.003512 8.37e-5,-0.0178705 -0.00649,-0.0213791 -0.013138,-0.007019 -0.029621,0.019996 -0.042757,0.0129765 -0.00657,-0.003512 8.38e-5,-0.0178705 -0.00649,-0.0213781 -0.00657,-0.003512 -0.01481,0.010002 -0.021378,0.006488 -0.014686,-0.007848 -0.019668,-0.0284209 -0.034355,-0.0362691 -0.00649,-0.003466 -0.032486,0.014729 -0.042757,0.0129765 -0.020765,-0.003542 -0.034972,-0.0262375 -0.055734,-0.0297807 -0.00734,-0.001252 -0.01481,0.010002 -0.021378,0.006488 -0.00657,-0.003512 8.519e-4,-0.0201258 -0.00649,-0.0213791 -0.014682,-0.002504 -0.028075,0.0154806 -0.042757,0.0129765 -0.00734,-0.001252 8.38e-5,-0.0178705 -0.00649,-0.0213791 -0.1087571,-0.0581131 -0.00998,0.008432 -0.070624,-0.001914 -0.010382,-0.001771 -0.017486,-0.0131194 -0.027867,-0.014891 -0.00734,-0.001252 -0.014036,0.00774 -0.021378,0.006488 -0.015552,-0.002658 -0.040182,-0.0271278 -0.055734,-0.0297807 -0.010272,-0.001753 -0.03627,0.016442 -0.042757,0.0129765 -0.00657,-0.003512 8.37e-5,-0.0178705 -0.00649,-0.0213791 -0.00649,-0.003466 -0.032486,0.014729 -0.042757,0.0129765 -0.010382,-0.001771 -0.017486,-0.0131194 -0.027867,-0.014891 -0.00734,-0.001252 -0.01481,0.010002 -0.021379,0.006488 -0.030322,-0.0162023 0.02946,-0.0394416 -0.034355,-0.0362691 -0.022314,0.001109 -0.041801,0.0200746 -0.064135,0.0194646 -0.00744,-1.9841e-4 8.38e-5,-0.0178702 -0.00649,-0.0213788 -0.013138,-0.007019 -0.029621,0.019996 -0.042757,0.0129765 -0.00657,-0.003509 8.39e-5,-0.0178702 -0.00649,-0.0213788 -0.00657,-0.003509 -0.014251,0.004325 -0.021378,0.006488 -0.00713,0.002164 -0.014251,0.004325 -0.021378,0.006488 -0.00713,0.002164 -0.014811,0.009998 -0.021378,0.006488 -0.00657,-0.003509 8.39e-5,-0.0178702 -0.00649,-0.0213788 -0.00657,-0.003509 -0.014036,0.007741 -0.021378,0.006488 -0.010382,-0.001771 -0.017486,-0.013119 -0.027866,-0.0148904 -0.00734,-0.001253 -0.014811,0.009998 -0.021378,0.006488 -0.00657,-0.003509 8.38e-5,-0.0178702 -0.00649,-0.0213788 -0.013138,-0.007019 -0.029621,0.019996 -0.042757,0.0129765 -0.00657,-0.003509 -0.00433,-0.0142526 -0.00649,-0.0213788 -0.014251,0.004325 -0.028075,0.0154816 -0.042757,0.0129765 -0.00734,-0.001253 8.38e-5,-0.0178702 -0.00649,-0.0213788 -0.013138,-0.007019 -0.029621,0.019996 -0.042757,0.0129765 -0.00657,-0.003509 8.39e-5,-0.0178702 -0.00649,-0.0213788 -0.00657,-0.003509 -0.014036,0.007741 -0.021378,0.006488 -0.010382,-0.001771 -0.017486,-0.013119 -0.027866,-0.0148904 -0.00734,-0.001253 -0.014811,0.009998 -0.021378,0.006488 -0.00657,-0.003509 8.38e-5,-0.0178702 -0.00649,-0.0213788 -0.00657,-0.003509 -0.014811,0.009998 -0.021378,0.006488 -0.00657,-0.003509 8.39e-5,-0.0178702 -0.00649,-0.0213788 -0.013138,-0.007019 -0.029621,0.019996 -0.042757,0.0129765 -0.00657,-0.003509 8.38e-5,-0.0178702 -0.00649,-0.0213788 -0.00657,-0.003509 -0.014039,0.007742 -0.021378,0.006488 -0.010382,-0.001771 -0.017485,-0.013119 -0.027866,-0.0148907 -0.014714,-0.002511 -0.038486,0.0270498 -0.049245,-0.008402 -0.00216,-0.007126 0.014811,-0.009998 0.021379,-0.006488 0.00657,0.003509 0.00433,0.0142526 0.00649,0.0213785 0.00216,0.007126 0.00433,0.0142526 0.00649,0.0213788 0.00216,0.007126 -8.39e-5,0.0178702 0.00649,0.0213788 0.00657,0.003509 0.014811,-0.009998 0.021378,-0.006488 0.00657,0.003509 0.00433,0.0142526 0.00649,0.0213788 0.00649,0.0213788 0.012977,0.0427573 0.019465,0.064136 0.00433,0.0142526 0.00865,0.0285049 0.012977,0.0427573 0.00216,0.007126 -8.38e-5,0.0178702 0.00649,0.0213788 0.00657,0.003509 0.014811,-0.009998 0.021378,-0.006488 0.00657,0.003509 0.00433,0.0142526 0.00649,0.0213785 0.00216,0.007126 0.00433,0.0142526 0.00649,0.0213788 0.019465,0.064136 0.03893,0.12827206 0.058394,0.19240813 0.00649,0.021379 0.012977,0.042757 0.019465,0.064136 0.00216,0.00713 0.010002,0.01481 0.00649,0.021379 -0.00351,0.00657 -0.017871,-8.38e-5 -0.021378,0.00649 -0.00351,0.00657 0.00433,0.014252 0.00649,0.021379 0.00216,0.00713 0.00433,0.014253 0.00649,0.021379 0.00216,0.00713 0.010002,0.01481 0.00649,0.021379 -0.00351,0.00657 -0.017871,-8.38e-5 -0.021378,0.00649 -0.00351,0.00657 0.010002,0.014809 0.00649,0.021378 -0.00351,0.00657 -0.020125,-8.522e-4 -0.021379,0.00649 -0.0025,0.014682 0.012235,0.027883 0.012977,0.042757 8.257e-4,0.016632 -0.00795,0.032599 -0.0084,0.049245 -1.984e-4,0.00744 0.00774,0.014037 0.00649,0.021378 -0.00177,0.010382 -0.01312,0.017485 -0.01489,0.027867 -0.00175,0.010272 0.016442,0.03627 0.012977,0.042757 -0.00351,0.00657 -0.017871,-8.38e-5 -0.021378,0.00649 -0.00785,0.014687 -0.0056,0.03283 -0.0084,0.049245 -0.0028,0.016417 -0.00795,0.032599 -0.0084,0.049245 -1.984e-4,0.00744 0.010002,0.014809 0.00649,0.021379 -0.00351,0.00657 -0.020125,-8.522e-4 -0.021378,0.00649 -0.0025,0.014682 0.01338,0.027868 0.012976,0.042757 -2.852e-4,0.010526 -0.01312,0.017485 -0.01489,0.027867 -0.00125,0.00734 0.00774,0.014038 0.00649,0.021379 -0.00121,0.00707 -0.029638,0.050477 -0.029781,0.055734 -4.035e-4,0.014889 0.012234,0.027882 0.012977,0.042757 8.257e-4,0.016632 -0.00795,0.032599 -0.0084,0.049245 -1.984e-4,0.00744 0.00774,0.014038 0.00649,0.021379 -0.00177,0.010382 -0.013119,0.017486 -0.01489,0.027866 -0.00175,0.010272 0.016442,0.03627 0.012976,0.042757 -0.00351,0.00657 -0.01787,-8.38e-5 -0.021378,0.00649 -0.00351,0.00657 0.010002,0.01481 0.00649,0.021379 -0.00351,0.00657 -0.01787,-8.38e-5 -0.021378,0.00649 -0.00351,0.00657 0.00774,0.014038 0.00649,0.021379 -0.00177,0.010382 -0.013119,0.017486 -0.014891,0.027867 -0.00434,0.025449 0.01732,0.017308 0.012976,0.042757 -0.00177,0.010382 -0.01312,0.017485 -0.01489,0.027867 -0.00175,0.010272 0.016442,0.03627 0.012977,0.042757 -0.00351,0.00657 -0.01787,-8.38e-5 -0.021378,0.00649 -0.00351,0.00657 0.010002,0.01481 0.00649,0.021379 -0.00351,0.00657 -0.017871,-8.38e-5 -0.021378,0.00649 -0.00351,0.00657 0.00433,0.014253 0.00649,0.021379 0.00433,0.014253 0.01338,0.027868 0.012977,0.042757 -2.853e-4,0.010527 -0.01312,0.017485 -0.01489,0.027866 -0.00125,0.00734 0.010002,0.01481 0.00649,0.021379 -0.00351,0.00657 -0.020125,-8.522e-4 -0.021378,0.00649 -0.0025,0.014682 0.015481,0.028075 0.012977,0.042757 -0.00125,0.00734 -0.017871,-8.38e-5 -0.021378,0.00649 -0.00351,0.00657 0.010002,0.01481 0.00649,0.021379 -0.00351,0.00657 -0.01787,-8.38e-5 -0.021378,0.00649 -0.00351,0.00657 0.00774,0.014037 0.00649,0.021379 -0.00177,0.010382 -0.014604,0.017339 -0.01489,0.027867 -0.00152,0.055944 0.037092,0.031147 0.00457,0.092003 -0.00785,0.014687 -0.028421,0.019668 -0.036269,0.034356 -0.00702,0.013136 0.019997,0.02962 0.012977,0.042757 -0.00351,0.00657 -0.017871,-8.37e-5 -0.021378,0.00649 -0.00351,0.00657 0.00669,0.013936 0.00649,0.021379 -4.549e-4,0.016648 -0.00359,0.033304 -0.0084,0.049245 -0.00609,0.020164 -0.02369,0.03557 -0.029781,0.055734 -0.00482,0.015942 -0.00359,0.033304 -0.0084,0.049245 -0.00304,0.010078 -0.013119,0.017486 -0.014891,0.027867 -0.00125,0.00734 0.00774,0.014039 0.00649,0.021378 -0.00354,0.020765 -0.026237,0.034972 -0.029781,0.055734 -0.00125,0.00734 0.00774,0.014039 0.00649,0.021379 -0.019226,0.1126887 -0.018671,-0.093407 -0.023292,0.077113 -1.984e-4,0.00744 0.010002,0.01481 0.00649,0.021378 -0.00785,0.014686 -0.031453,0.018418 -0.036269,0.034356 -0.00431,0.014258 0.00865,0.028505 0.012977,0.042757 0.00216,0.00713 0.010002,0.01481 0.00649,0.021378 -0.030809,0.057657 -0.018792,-0.068117 -0.036269,0.034355 -0.00175,0.010272 0.016442,0.03627 0.012976,0.042757 -0.00351,0.00657 -0.01787,-8.38e-5 -0.021378,0.00649 -0.00351,0.00657 0.00774,0.014036 0.00649,0.021378 -0.00177,0.010382 -0.00993,0.018576 -0.014891,0.027867 -0.00497,0.00929 -0.00993,0.018576 -0.01489,0.027866 -0.00497,0.00929 -0.013119,0.017486 -0.01489,0.027867 -0.00125,0.00734 0.010002,0.01481 0.00649,0.021378 -0.00351,0.00657 -0.017871,-8.38e-5 -0.021378,0.00649 -0.00351,0.00657 0.010002,0.01481 0.00649,0.021378 -0.00351,0.00657 -0.017871,-8.38e-5 -0.021378,0.00649 -0.058113,0.1087571 0.00843,0.00998 -0.00191,0.070624 -0.00177,0.010382 -0.00993,0.018576 -0.014891,0.027867 -0.00497,0.00929 -0.00724,0.020625 -0.01489,0.027866 -0.00541,0.00512 -0.01787,-8.38e-5 -0.021378,0.00649 -0.00785,0.014686 -0.0056,0.03283 -0.0084,0.049245 -0.0028,0.016415 -0.00359,0.033305 -0.0084,0.049245 -0.00304,0.010078 -0.013119,0.017486 -0.01489,0.027866 -0.00125,0.00734 0.00774,0.014036 0.00649,0.021378 -0.017484,0.102474 -0.00547,-0.023299 -0.036269,0.034355 -0.00351,0.00657 0.00774,0.014039 0.00649,0.021379 -0.00177,0.010382 -0.013119,0.017486 -0.01489,0.027866 -0.00125,0.00734 0.00774,0.014039 0.00649,0.021378 -0.00177,0.010382 -0.00993,0.018576 -0.014891,0.027867 -0.00993,0.018576 -0.019854,0.037156 -0.029781,0.055734 -0.00497,0.00929 -0.014604,0.017339 -0.01489,0.027866 0.00433,0.014251 0.00865,0.028505 0.012976,0.042757 -0.00713,0.00216 -0.020125,-8.522e-4 -0.021378,0.00649 -0.0025,0.014682 0.015481,0.028075 0.012977,0.042757 -0.00216,0.012681 -0.035962,2.58e-4 -0.042757,0.012977 -0.00351,0.00657 0.00774,0.014039 0.00649,0.021378 -0.00177,0.010382 -0.013119,0.017486 -0.01489,0.027866 -0.00125,0.00734 0.00774,0.014036 0.00649,0.021379 -0.00177,0.010382 -0.00993,0.018576 -0.01489,0.027866 -0.00497,0.00929 -0.00724,0.020625 -0.01489,0.027866 -0.00541,0.00512 -0.020125,-8.522e-4 -0.021379,0.00649 -0.0025,0.014682 0.01338,0.027868 0.012977,0.042757 -1.488e-4,0.00526 -0.028574,0.048666 -0.029781,0.055734 -0.00125,0.00734 0.010002,0.01481 0.00649,0.021378 -0.00785,0.014686 -0.028421,0.01967 -0.036269,0.034355 -0.00785,0.014686 -0.00359,0.033304 -0.0084,0.049245 -0.00304,0.010078 -0.013119,0.017486 -0.01489,0.027866 -0.00125,0.00734 0.010002,0.01481 0.00649,0.021379 -0.00351,0.00657 -0.01787,-8.38e-5 -0.021378,0.00649 -0.00785,0.014686 -5.556e-4,0.034559 -0.0084,0.049245 -0.00351,0.00657 -0.017871,-8.37e-5 -0.021378,0.00649 -0.00351,0.00657 0.00774,0.014039 0.00649,0.021378 -0.00354,0.020765 -0.026238,0.034969 -0.029781,0.055734 -0.00125,0.00734 0.010002,0.01481 0.00649,0.021378 -0.00351,0.00657 -0.01597,0.00137 -0.021378,0.00649 -0.075471,0.071489 0.02241,-0.0084 -0.0084,0.049246 -0.00351,0.00657 -0.017871,-8.38e-5 -0.021378,0.00649 -0.00785,0.014686 -0.00271,0.033596 -0.0084,0.049245 -0.064405,0.1205329 -0.00507,-0.00465 -0.038183,0.1049793 -0.017837,0.059052 -0.014993,-0.00546 -0.05116,0.062222 -0.030809,0.057657 0.067072,-0.022237 -0.0084,0.049246 -0.00541,0.00512 -0.01787,-8.37e-5 -0.021379,0.00649 -0.00351,0.00657 0.00774,0.014036 0.00649,0.021378 -0.00177,0.010382 -0.00993,0.018576 -0.014891,0.027867 -0.00993,0.018577 -0.022581,0.035939 -0.029781,0.055734 -0.00569,0.015649 0.00217,0.036384 -0.0084,0.049245 -0.00946,0.011503 -0.035738,-1.611e-4 -0.042757,0.012977 -0.00702,0.013138 0.01338,0.027868 0.012977,0.042757 -1.393e-4,0.00526 -0.028574,0.048666 -0.029781,0.055734 -0.00125,0.00734 0.010002,0.01481 0.00649,0.021378 -0.00351,0.00657 -0.015971,0.00137 -0.021379,0.00649 -0.00765,0.00724 -0.00993,0.018577 -0.014891,0.027868 -0.00497,0.00929 -0.013119,0.017486 -0.014891,0.027867 -0.00125,0.00734 0.00433,0.014251 0.00649,0.021378 -0.0028,0.016415 -0.00359,0.033304 -0.0084,0.049246 -0.00304,0.010079 -0.013119,0.017486 -0.014891,0.027867 -0.00125,0.00734 0.010002,0.01481 0.00649,0.021378 -0.00351,0.00657 -0.015971,0.00137 -0.021378,0.00649 -0.00765,0.00724 -0.00993,0.018577 -0.014891,0.027867 -0.00497,0.00929 -0.013119,0.017486 -0.01489,0.027866 -0.00125,0.00734 0.00433,0.014251 0.00649,0.021378 -0.0028,0.016415 -0.00271,0.033596 -0.0084,0.049246 -0.0072,0.019795 -0.019854,0.037156 -0.029781,0.055734 -0.00497,0.00929 -0.00993,0.018577 -0.014891,0.027867 -0.00497,0.00929 -0.014605,0.01734 -0.014891,0.027867 -4.037e-4,0.014888 0.015481,0.028075 0.012977,0.042757 -0.00125,0.00734 -0.01787,-8.38e-5 -0.021379,0.00649 -0.00351,0.00657 0.00774,0.014036 0.00649,0.021378 -0.00266,0.015552 -0.027128,0.040182 -0.029781,0.055734 -0.00125,0.00734 0.00774,0.014036 0.00649,0.021378 -0.00354,0.020765 -0.026238,0.034969 -0.029781,0.055734 -0.00125,0.00734 0.010002,0.01481 0.00649,0.021378 -0.00351,0.00657 -0.020558,-9.089e-4 -0.021379,0.00649 -0.00596,0.053888 0.00177,0.1084182 0.00266,0.1626273 z"
         id="path2" />
      <path
         style="fill:#505050;fill-opacity:1;stroke:#000000;stroke-width:0.365;stroke-linecap:butt;stroke-linejoin:miter;stroke-dasharray:none;stroke-opacity:1"
         d="M 2.0398316,1.2062398 1.3404939,2.2118148 2.2341565,3.4182595 5.4290003,3.6640167 6.5013954,3.3288931 6.6354447,2.6586462 5.9205147,2.0107408 5.3172925,1.899033 3.3735763,1.6756174 2.770354,1.2958108 Z"
         id="path3"
         sodipodi:nodetypes="ccccccccccc" />
      <path
         style="fill:none;stroke:#ffffff;stroke-width:0.1;stroke-linecap:butt;stroke-linejoin:miter;stroke-opacity:1;stroke-dasharray:none"
         d="M 2.6224467,3.7914892 5.4976593,1.5165957"
         id="path4" />
      <path
         style="fill:none;stroke:#ffffff;stroke-width:0.1;stroke-linecap:butt;stroke-linejoin:miter;stroke-opacity:1;stroke-dasharray:none"
         d="M 4.4865956,3.8546807 3.6019147,1.358617"
         id="path5" />
    </g>
  </g>
</svg>
