<?xml version="1.0" encoding="UTF-8" standalone="no"?>
<!-- Created with Inkscape (http://www.inkscape.org/) -->

<svg
   width="8mm"
   height="8mm"
   viewBox="0 0 8 8"
   version="1.1"
   id="svg1"
   inkscape:version="1.4 (86a8ad7, 2024-10-11)"
   sodipodi:docname="label-red-payload-blade.svg"
   xmlns:inkscape="http://www.inkscape.org/namespaces/inkscape"
   xmlns:sodipodi="http://sodipodi.sourceforge.net/DTD/sodipodi-0.dtd"
   xmlns="http://www.w3.org/2000/svg"
   xmlns:svg="http://www.w3.org/2000/svg">
  <sodipodi:namedview
     id="namedview1"
     pagecolor="#ffffff"
     bordercolor="#666666"
     borderopacity="1.0"
     inkscape:showpageshadow="2"
     inkscape:pageopacity="0.0"
     inkscape:pagecheckerboard="0"
     inkscape:deskcolor="#d1d1d1"
     inkscape:document-units="mm"
     inkscape:zoom="11.84265"
     inkscape:cx="25.501049"
     inkscape:cy="24.952186"
     inkscape:window-width="1297"
     inkscape:window-height="1211"
     inkscape:window-x="708"
     inkscape:window-y="123"
     inkscape:window-maximized="0"
     inkscape:current-layer="layer1" />
  <defs
     id="defs1" />
  <g
     inkscape:label="Layer 1"
     inkscape:groupmode="layer"
     id="layer1">
    <g
       id="g1">
      <ellipse
         style="fill:none;stroke:#939393;stroke-width:0.331356;stroke-dasharray:none;stroke-opacity:1;paint-order:markers stroke fill"
         id="path1"
         cx="3.9999998"
         cy="4"
         rx="3.8343217"
         ry="3.834322" />
      <g
         id="g2"
         transform="matrix(1.0392569,0,0,1.1878053,-27.721177,-12.051705)">
        <path
           style="fill:#000000;fill-opacity:1;stroke:none;stroke-width:0.3;stroke-dasharray:none;stroke-opacity:1"
           d="m 31.682633,10.813644 c -0.0026,0.01053 -0.0026,0.02217 -0.0079,0.0316 -0.0055,0.0097 -0.01654,0.01512 -0.02371,0.0237 -0.01921,0.02306 -0.03864,0.04611 -0.05529,0.07109 -0.0098,0.0147 -0.01524,0.03189 -0.02371,0.04739 -0.0263,0.04824 -0.05663,0.09679 -0.08689,0.14218 -0.02191,0.03286 -0.05191,0.06026 -0.07109,0.09479 -0.02674,0.04813 -0.04424,0.101748 -0.07109,0.15008 -0.0199,0.03581 -0.03369,0.07601 -0.05529,0.110585 -0.007,0.01116 -0.01781,0.01982 -0.02371,0.0316 -0.01982,0.03965 -0.02561,0.08717 -0.0474,0.126383 -0.0064,0.01151 -0.0173,0.02009 -0.02371,0.0316 -0.01032,0.01859 -0.025,0.06875 -0.0316,0.08689 -0.01582,0.04353 -0.03821,0.08368 -0.05529,0.126383 -0.02479,0.06199 -0.0482,0.12662 -0.07109,0.189575 -0.01355,0.03728 -0.03498,0.07333 -0.04739,0.110585 -0.0056,0.01687 -0.0082,0.05337 -0.0158,0.07109 -0.0037,0.0087 -0.01206,0.01497 -0.0158,0.0237 -0.0217,0.05063 -0.02904,0.113609 -0.03949,0.165878 -0.008,0.03984 -0.03322,0.08067 -0.0474,0.118484 -0.0076,0.02033 -0.0082,0.04286 -0.0158,0.06319 -0.0041,0.01103 -0.01206,0.02042 -0.0158,0.03159 -0.0056,0.01687 -0.0082,0.05337 -0.0158,0.07109 -0.0037,0.0087 -0.01254,0.01477 -0.0158,0.0237 -0.0074,0.0204 -0.0094,0.04244 -0.0158,0.06319 -0.01244,0.0404 -0.03301,0.07894 -0.04739,0.118484 -0.0074,0.02041 -0.0072,0.04323 -0.0158,0.06319 -0.01368,0.03195 -0.0318,0.06361 -0.04739,0.09479 -0.01363,0.02726 -0.01429,0.05866 -0.02371,0.08689 -0.01156,0.0347 -0.03138,0.07066 -0.0474,0.102687 -0.02577,0.05156 -0.02944,0.114175 -0.05529,0.165877 -0.02315,0.0463 -0.03874,0.09253 -0.05529,0.142181 -0.01273,0.03818 -0.03339,0.07324 -0.04739,0.110585 -0.01968,0.05249 -0.0384,0.111935 -0.04739,0.165878 -0.0074,0.04443 -0.02879,0.09145 -0.0395,0.134282 -0.0095,0.03814 -0.0038,-3.97e-4 -0.0158,0.0237 -0.0059,0.01178 -0.0053,0.03437 -0.0079,0.04739 -0.0059,0.02938 -0.02682,0.05821 -0.0316,0.08689 -0.0019,0.01039 0.0019,0.02121 0,0.03159 -0.0024,0.01431 -0.01183,0.02755 -0.0158,0.0395 -0.0057,0.01718 -0.0053,0.03717 -0.0079,0.05529 -0.0047,0.03297 -0.02392,0.05613 -0.0316,0.08689 -0.0026,0.01022 0.0016,0.02117 0,0.0316 -0.009,0.06305 -0.02894,0.139687 -0.0158,0.205372 0.0019,0.0099 0.02103,0.03418 0.02371,0.0395 0.0037,0.0074 0.0029,0.01704 0.0079,0.0237 0.01093,0.01456 0.05854,0.03484 0.07109,0.04739 0.0067,0.0067 0.0084,0.01777 0.01579,0.0237 0.0065,0.0052 0.01693,0.0031 0.02371,0.0079 0.02122,0.01515 0.03408,0.04014 0.05529,0.05529 0.03622,0.02587 0.07954,0.03582 0.118483,0.05529 0.01699,0.0085 0.02994,0.02412 0.04739,0.0316 0.03543,0.01518 0.02455,4.23e-4 0.05529,0.0158 0.0085,0.0043 0.01492,0.01229 0.02371,0.0158 0.02024,0.0081 0.092,0.01835 0.102687,0.0237 0.0067,0.0033 0.0089,0.01303 0.0158,0.0158 0.0073,0.0029 0.01603,-0.0019 0.02371,0 0.06663,0.01666 0.165703,0.07513 0.236968,0.03949 0.03383,-0.01692 0.07682,-0.06245 0.09479,-0.09479 0.0069,-0.0124 0.0083,-0.02747 0.0158,-0.0395 0.0059,-0.0095 0.01643,-0.01522 0.02371,-0.0237 0.0086,-0.01 0.01439,-0.02229 0.02371,-0.03159 0.01117,-0.01116 0.03168,-0.01596 0.0395,-0.0316 0.0024,-0.0047 -0.0019,-0.01091 0,-0.0158 0.0057,-0.01425 0.01283,-0.02864 0.02371,-0.03949 0.0019,-0.0019 0.006,0.0019 0.0079,0 0.0037,-0.0037 -0.0024,-0.01109 0,-0.0158 0.0058,-0.01152 0.01265,-0.01264 0.0158,-0.0158 0.0019,-0.0019 0,-0.01053 0,-0.0079 0,0.03821 0.01056,0.07384 0.0158,0.110585 0.0066,0.04599 -0.0091,0.09667 0,0.142181 0.0042,0.02075 0.01148,0.04163 0.01579,0.06319 0.0048,0.02407 0.005,0.211896 0,0.236968 -0.0016,0.0082 -0.0065,0.01548 -0.0079,0.0237 -0.0026,0.01558 0.0026,0.03181 0,0.04739 -0.0033,0.01956 -0.01117,0.03681 -0.0158,0.05529 -0.0013,0.0051 0.0019,0.01091 0,0.0158 -0.0035,0.0088 -0.01281,0.01469 -0.0158,0.0237 -0.0024,0.0075 0.0016,0.01595 0,0.0237 -0.0033,0.01665 -0.02249,0.07779 -0.03159,0.08689 -0.01458,0.01459 -0.136113,0.0237 -0.157981,0.0237 -0.05306,0 -0.131066,0.01012 -0.181676,0 -0.0058,-0.0012 -0.01003,-0.0067 -0.01579,-0.0079 -0.0078,-0.0016 -0.01619,0.0025 -0.02371,0 -0.009,-0.003 -0.01503,-0.01194 -0.02371,-0.0158 -0.01521,-0.0068 -0.03218,-0.009 -0.04739,-0.0158 -0.02937,-0.01305 -0.05143,-0.03876 -0.07899,-0.05529 -0.0071,-0.0043 -0.01656,-0.0036 -0.02371,-0.0079 -0.0064,-0.0038 -0.0091,-0.01247 -0.0158,-0.0158 -0.0097,-0.0049 -0.02188,-0.003 -0.0316,-0.0079 -0.02974,-0.01487 -0.05662,-0.04016 -0.08689,-0.05529 -0.02106,-0.01053 -0.04155,-0.02232 -0.06319,-0.0316 -0.01,-0.0043 -0.02162,-0.0036 -0.03159,-0.0079 -0.0087,-0.0037 -0.0154,-0.01119 -0.02371,-0.0158 -0.05147,-0.0286 -0.101148,-0.04582 -0.157978,-0.05529 -0.04853,-0.0081 -0.140062,-0.02581 -0.181676,0.0158 -0.0042,0.0042 -0.003,0.01253 -0.0079,0.0158 -0.0044,0.0029 -0.01109,-0.0024 -0.0158,0 -0.01249,0.0062 -0.03127,0.03643 -0.03949,0.04739 -0.0071,0.0094 -0.0064,0.02453 -0.0158,0.03159 -0.0067,0.005 -0.01781,0.002 -0.02371,0.0079 -0.0073,0.0073 -0.01897,0.04585 -0.02371,0.05529 -0.0077,0.01544 -0.02598,0.03056 -0.0316,0.04739 -0.0024,0.0075 0.0016,0.01595 0,0.0237 -0.0024,0.01155 -0.01143,0.02066 -0.0158,0.0316 -0.01008,0.0252 -0.01318,0.05443 -0.02371,0.07899 -0.0037,0.0087 -0.01156,0.01521 -0.0158,0.0237 -0.01117,0.02234 -0.01492,0.0477 -0.02371,0.07109 -0.02368,0.06312 0.01201,-0.0398 -0.02371,0.0316 -0.0048,0.0097 -0.0036,0.02162 -0.0079,0.0316 -0.01439,0.03357 -0.0371,0.06295 -0.05529,0.09479 -0.03284,0.05747 -0.06636,0.111388 -0.102687,0.165877 -0.01032,0.01549 -0.02495,0.02786 -0.03949,0.03949 -0.0021,0.0016 -0.006,-0.0019 -0.0079,0 -0.0067,0.0067 -0.0091,0.01698 -0.0158,0.0237 -0.04078,0.04078 -0.177797,0.08692 -0.236968,0.110585 -0.01093,0.0044 -0.01998,0.01386 -0.0316,0.0158 -0.0104,0.0017 -0.02122,-0.0017 -0.03159,0 -0.0058,9.79e-4 -0.01003,0.0067 -0.0158,0.0079 -0.03871,0.0077 -0.07237,0.0079 -0.110585,0.0079 -0.09825,0 -0.211751,0.01261 -0.300159,-0.03159 -0.01019,-0.0051 -0.03023,-0.0033 -0.0395,-0.0079 -0.0067,-0.0033 -0.0098,-0.01133 -0.0158,-0.0158 -0.02492,-0.0187 -0.0099,0.0059 -0.0395,-0.0237 -0.01381,-0.01382 -0.01778,-0.04147 -0.03159,-0.05529 -0.0067,-0.0067 -0.01844,-0.0079 -0.02371,-0.0158 -0.006,-0.009 -0.0036,-0.02162 -0.0079,-0.0316 -0.01005,-0.02345 -0.02703,-0.04241 -0.03949,-0.06319 -0.01534,-0.02558 -0.02225,-0.05888 -0.0316,-0.08689 -0.0037,-0.01117 -0.01257,-0.02027 -0.0158,-0.0316 -0.0089,-0.03115 -0.01609,-0.06433 -0.02371,-0.09479 -0.0026,-0.01022 0.0039,-0.02182 0,-0.0316 -0.0035,-0.0088 -0.01281,-0.01469 -0.0158,-0.0237 -0.0071,-0.02138 -0.01331,-0.136294 -0.0079,-0.157978 0.0021,-0.0082 0.02685,-0.07187 0.0316,-0.07899 0.0041,-0.0062 0.01344,-0.0087 0.0158,-0.0158 0.0038,-0.01143 0.0027,-0.02121 0.0079,-0.0316 0.0079,-0.01585 0.02855,-0.02065 0.03949,-0.0316 0.0019,-0.0019 -0.0019,-0.006 0,-0.0079 0.0019,-0.0019 0.006,0.0019 0.0079,0 0.0019,-0.0019 0,-0.0053 0,-0.0079 0.0026,-0.0026 0.0048,-0.0058 0.0079,-0.0079 0.01506,-0.01004 0.0344,-0.01861 0.04739,-0.0316 0.0019,-0.0019 -0.0019,-0.006 0,-0.0079 0.0057,-0.0057 0.0525,-0.02625 0.06319,-0.0316 0.03615,-0.01808 -0.03352,0.0033 0.02371,-0.0158 0.01357,-0.0045 0.03491,-0.0017 0.0474,-0.0079 0.0033,-0.0017 0.0044,-0.0067 0.0079,-0.0079 0.005,-0.0017 0.01109,0.0024 0.0158,0 0.0024,-0.0012 -0.0019,-0.006 0,-0.0079 0.0033,-0.0033 0.01892,-0.0055 0.02371,-0.0079 0.0067,-0.0033 0.0087,-0.01344 0.0158,-0.0158 0.01876,-0.0063 0.01434,0.0094 0.0316,-0.0079 0.0042,-0.0042 0.0046,-0.0109 0.0079,-0.0158 0.01209,-0.01815 0.0045,0.0034 0.02371,-0.0158 0.0042,-0.0042 0.0044,-0.01109 0.0079,-0.0158 0.0045,-0.006 0.01246,-0.0091 0.0158,-0.0158 0.0024,-0.0047 -0.0016,-0.0108 0,-0.0158 0.0024,-0.0071 0.01344,-0.0087 0.0158,-0.0158 0.006,-0.01796 0.0079,-0.04361 0.0079,-0.06319 0,-0.01391 0.0063,-0.05064 0,-0.06319 -0.0076,-0.01516 -0.02222,-0.04915 -0.0316,-0.06319 -0.01175,-0.01762 -0.03131,-0.02355 -0.04739,-0.0316 -0.01265,-0.0063 -0.01897,-0.02528 -0.0316,-0.0316 -0.03176,-0.01588 -0.04334,-0.02658 -0.07109,-0.04739 -0.01188,-0.0089 -0.05605,-0.01868 -0.07109,-0.0237 -0.0071,-0.0024 -0.0091,-0.01247 -0.0158,-0.0158 -0.01659,-0.0083 -0.04454,-0.01903 -0.06319,-0.0237 -0.0051,-0.0013 -0.01109,0.0024 -0.0158,0 -0.0067,-0.0033 -0.0091,-0.01247 -0.0158,-0.0158 -0.04671,-0.02336 0.01691,0.02847 -0.03159,-0.0079 -0.01754,-0.01316 -0.01974,-0.02633 -0.03949,-0.03949 -0.0069,-0.0046 -0.01704,-0.0029 -0.02371,-0.0079 -0.0047,-0.0035 -0.0037,-0.01163 -0.0079,-0.0158 -0.0042,-0.0042 -0.01164,-0.0037 -0.0158,-0.0079 -0.01225,-0.01225 -0.01582,-0.03324 -0.02371,-0.04739 -0.0092,-0.0166 -0.02252,-0.03072 -0.0316,-0.04739 -0.02045,-0.03748 -0.0249,-0.07829 -0.0316,-0.118483 -0.0019,-0.01105 -0.01394,-0.02845 -0.01579,-0.03949 -0.01098,-0.06596 -1.59e-4,-0.228433 0.01579,-0.292261 0.0035,-0.01398 0.03754,-0.07375 0.0474,-0.08689 0.0067,-0.0089 0.02016,-0.0131 0.02371,-0.0237 0.0016,-0.005 -0.0029,-0.01142 0,-0.0158 0.0076,-0.01149 0.110662,-0.07375 0.126383,-0.07899 0.005,-0.0017 0.0109,0.002 0.0158,0 0.0088,-0.0035 0.01521,-0.01155 0.02371,-0.0158 0.0048,-0.0024 0.02006,0.0037 0.02371,0 0.0019,-0.0019 0.0026,-0.0079 0,-0.0079 -0.0079,0 -0.0019,0.01603 0,0.0237 0.0064,0.02551 0.0079,0.04324 0.0079,0.07109 0,0.05266 0,0.105319 0,0.157979 0,0.02577 -0.0083,0.101612 0,0.126382 0.0061,0.01827 0.0068,0.0019 0.0158,0.0079 0.01238,0.0083 0.01968,0.02266 0.03159,0.0316 -7.94e-4,0.01497 0.01844,0.0053 0.02371,0.0079 0.01365,0.0068 0.03591,0.02241 0.04739,0.03159 0.02283,0.01828 0.04494,0.04222 0.07109,0.05529 0.0024,0.0012 0.0053,0 0.0079,0 0.0053,0.0026 0.01109,0.0044 0.0158,0.0079 0.01646,0.01233 0.05377,0.04663 0.07109,0.05529 0.02503,0.01251 0.0074,-0.01635 0.0316,0.0079 0.0042,0.0042 0.0026,0.01317 0.0079,0.0158 0.0071,0.0035 0.0159,-0.0013 0.02371,0 0.05986,0.01 0.0032,0.0016 0.0316,0.0158 0.01177,0.0059 0.122113,0.002 0.134281,0 0.04739,-0.0079 0.10087,-0.05719 0.134284,-0.08689 0.04165,-0.03702 0.09198,-0.05682 0.126381,-0.102686 0.0284,-0.03786 0.025,-0.04998 0.0474,-0.09479 0.02125,-0.04252 0.05429,-0.0816 0.07109,-0.126383 0.02191,-0.05842 0.04607,-0.121749 0.06319,-0.181675 0.0044,-0.0154 0.0037,-0.03194 0.0079,-0.04739 0.01939,-0.07108 0.04383,-0.142279 0.06319,-0.213271 0.0049,-0.01797 0.0072,-0.05906 0.01579,-0.07899 0.0037,-0.0087 0.01281,-0.01469 0.0158,-0.0237 0.0077,-0.02303 0.0087,-0.04789 0.0158,-0.07109 0.01082,-0.03515 0.03416,-0.06828 0.04739,-0.102686 0.009,-0.02332 0.01323,-0.04841 0.02371,-0.07109 0.0055,-0.01195 0.01781,-0.01982 0.02371,-0.0316 0.0074,-0.01489 0.0094,-0.03202 0.0158,-0.04739 0.02119,-0.05084 0.05065,-0.09897 0.07109,-0.15008 0.02265,-0.05662 0.04162,-0.08815 0.07109,-0.142181 0.01241,-0.02276 0.019,-0.04842 0.0316,-0.07109 0.0064,-0.01151 0.01836,-0.01957 0.02371,-0.0316 0.0054,-0.01227 0.0037,-0.02676 0.0079,-0.0395 0.01863,-0.0559 0.06294,-0.10231 0.09479,-0.15008 0.01632,-0.02449 0.02315,-0.05449 0.03949,-0.07899 0.01757,-0.02634 0.05348,-0.05922 0.07109,-0.08689 0.0095,-0.0149 0.01357,-0.03292 0.02371,-0.04739 0.0085,-0.0122 0.02228,-0.01996 0.0316,-0.0316 0.02601,-0.03251 0.048,-0.06805 0.07109,-0.102686 0.04394,-0.0659 0.09204,-0.130594 0.134284,-0.197473 0.02773,-0.04391 0.05018,-0.09107 0.07899,-0.134282 0.02567,-0.03849 0.02999,-0.0326 0.05529,-0.07899 0.02793,-0.05121 0.05053,-0.111236 0.08689,-0.157979 0.0092,-0.01176 0.02246,-0.01984 0.0316,-0.0316 0.0094,-0.01212 0.0149,-0.02692 0.02371,-0.0395 0.03437,-0.04909 0.07725,-0.09218 0.110586,-0.14218 0.121719,-0.182579 -0.01238,0.0038 0.06319,-0.08689 0.01569,-0.01881 0.02421,-0.04484 0.03949,-0.06319 0.01431,-0.01716 0.03344,-0.02995 0.04739,-0.04739 0.02519,-0.03148 0.03714,-0.07142 0.06319,-0.102686 0.01193,-0.0143 0.02917,-0.024 0.0395,-0.03949 0.0065,-0.0098 0.0093,-0.0218 0.01579,-0.0316 0.0083,-0.01239 0.02392,-0.01883 0.0316,-0.0316 0.0043,-0.0071 0.0036,-0.01656 0.0079,-0.0237 0.0077,-0.01277 0.02392,-0.01882 0.0316,-0.0316 0.0043,-0.0071 0.0029,-0.01704 0.0079,-0.0237 0.0035,-0.0047 0.0109,-0.0046 0.01579,-0.0079 0.01209,-0.0081 0.0062,-0.01091 0.0158,-0.0237 0.0079,-0.01053 0.02371,-0.01317 0.03159,-0.0237 0.005,-0.0067 0.0029,-0.01704 0.0079,-0.0237 0.0061,-0.0081 0.04671,-0.03263 0.05529,-0.0395 0.02973,-0.02379 0.05332,-0.0701 0.08689,-0.08689 0.03715,-0.01857 0.05719,-0.0251 0.102685,-0.0316 z"
           id="path8" />
        <path
           style="fill:#000000;fill-opacity:1;stroke:none;stroke-width:0.3;stroke-dasharray:none;stroke-opacity:1"
           d="m 30.687367,15.015878 c -0.01296,-0.0255 -0.03617,-0.05758 -0.06319,-0.07109 -0.0047,-0.0024 -0.01079,0.0017 -0.01579,0 -0.01119,-0.0037 -0.01127,-0.01918 -0.0158,-0.0237 -0.0027,-0.0027 -0.05127,-0.03748 -0.05529,-0.0395 -0.0075,-0.0037 -0.01677,-0.0033 -0.02371,-0.0079 -0.0021,-0.0015 0.0019,-0.006 0,-0.0079 -0.0042,-0.0042 -0.01164,-0.0037 -0.0158,-0.0079 -0.0019,-0.0019 0.0019,-0.006 0,-0.0079 -0.0059,-0.0059 -0.01781,-0.002 -0.02371,-0.0079 -0.0016,-0.0015 -0.0065,-0.02224 -0.0079,-0.0237 -5.29e-4,-0.02224 -0.01781,-0.002 -0.02371,-0.0079 -0.0037,-0.0037 0.0024,-0.01109 0,-0.0158 -0.0097,-0.01946 -0.02548,-0.02115 -0.0316,-0.0395 -0.0045,-0.01337 -0.0062,-0.0757 -0.0079,-0.07899 -0.01551,-0.03098 -0.0079,-0.08164 -0.0079,-0.118484 0,-0.05641 0.0048,-0.102942 0.0158,-0.157979 0.0037,-0.0185 0.01511,-0.05391 0.02371,-0.07109 0.0016,-0.0033 0.0067,-0.0044 0.0079,-0.0079 0.0033,-0.01 -0.0033,-0.0216 0,-0.0316 0.004,-0.01215 0.01966,-0.02735 0.02371,-0.0395 0.0046,-0.0138 0.0033,-0.02569 0.0079,-0.0395 0.0011,-0.0035 0.0053,-0.0053 0.0079,-0.0079 0.0026,-0.0053 0.0065,-0.01009 0.0079,-0.0158 0.0052,-0.02089 0.01058,-0.0423 0.0158,-0.06319 0.0037,-0.01472 0.0195,-0.02691 0.02371,-0.0395 0.0046,-0.0138 0.0033,-0.02569 0.0079,-0.0395 0.0024,-0.0071 0.01304,-0.0089 0.0158,-0.0158 0.0021,-0.0055 0.01304,-0.05767 0.0158,-0.06319 0.0033,-0.0067 0.01304,-0.0089 0.0158,-0.0158 0.006,-0.01487 0.0019,-0.03252 0.0079,-0.04739 0.0163,-0.04076 0.03728,-0.07802 0.04739,-0.118484 0.0031,-0.01264 0.02831,-0.05007 0.0316,-0.06319 0.0019,-0.0077 -0.0019,-0.01603 0,-0.0237 0.0067,-0.02664 0.02498,-0.05248 0.0316,-0.07899 0.0013,-0.0051 -0.0016,-0.0108 0,-0.0158 0.0011,-0.0035 0.0053,-0.0053 0.0079,-0.0079 0.0026,-0.0053 0.0065,-0.01009 0.0079,-0.0158 0.0061,-0.02455 0.01,-0.04791 0.0158,-0.07109 0.0037,-0.01472 0.0195,-0.02691 0.02371,-0.03949 0.0016,-0.005 -0.0013,-0.01069 0,-0.0158 0.0041,-0.01657 0.02035,-0.03067 0.02371,-0.04739 0.0042,-0.02076 0.0028,-0.04271 0.0079,-0.06319 0.0034,-0.01367 0.01921,-0.02604 0.02371,-0.0395 0.0091,-0.02734 0.0088,-0.05885 0.0158,-0.08689 -0.01648,-0.03395 0.01344,-0.0087 0.0158,-0.0158 0.0024,-0.0075 -0.0019,-0.01603 0,-0.0237 7.94e-4,-0.0031 0.01439,-0.03382 0.0158,-0.03949 0.0069,-0.02753 -0.01254,-0.0054 0.0079,-0.0395 0.0038,-0.0064 0.01246,-0.0091 0.0158,-0.0158 0.0036,-0.0072 0.01246,-0.06111 0.0158,-0.07109 0.0048,-0.01457 0.01884,-0.02493 0.02371,-0.03949 0.03283,-0.0985 -0.03711,0.05387 0.0079,-0.04739 0.02162,-0.04862 0.05268,-0.09754 0.06319,-0.15008 0.0016,-0.0077 -0.0021,-0.0161 0,-0.0237 0.006,-0.02117 0.02384,-0.04382 0.03159,-0.06319 0.01058,-0.02645 0.01132,-0.05216 0.01579,-0.07899 -0.0028,-0.01607 0.01302,-0.02559 0.0158,-0.03949 0.0016,-0.0077 -0.0024,-0.0162 0,-0.0237 0.003,-0.009 0.01281,-0.01469 0.0158,-0.0237 0.0024,-0.0075 -0.0016,-0.01595 0,-0.0237 0.0024,-0.01155 0.01349,-0.02005 0.0158,-0.0316 0.0016,-0.0077 -0.0013,-0.01591 0,-0.0237 0.0027,-0.01642 0.01217,-0.03114 0.0158,-0.04739 0.0088,-0.03956 0.0149,-0.07892 0.02371,-0.118484 0.0049,-0.02208 0.01762,-0.04198 0.02371,-0.06319 0.0021,-0.007 0.0044,-0.07209 0.0079,-0.07899 0.0046,-0.0092 0.01119,-0.0145 0.0158,-0.0237 0.0061,-0.01217 0.0013,-0.03402 0.0079,-0.04739 0.0092,-0.01831 0.02516,-0.03602 0.03159,-0.05529 0.0037,-0.01108 0.0016,-0.03812 0.0079,-0.04739 0.0033,-0.0049 0.01318,-0.0026 0.0158,-0.0079 0.0035,-0.0071 -0.0016,-0.01595 0,-0.0237 0.0038,-0.01909 0.0164,-0.03704 0.02371,-0.05529 0.03181,-0.07951 -0.0062,0.01677 0.0079,-0.03949 0.0029,-0.01142 0.01349,-0.02005 0.0158,-0.0316 0.0016,-0.0077 -0.0016,-0.01595 0,-0.0237 0.0033,-0.01666 0.01685,-0.03368 0.02371,-0.04739 0.0051,-0.01028 0.0019,-0.03024 0.0079,-0.03949 0.0033,-0.0049 0.01254,-0.003 0.0158,-0.0079 0.0046,-0.0069 0.0035,-0.03065 0.0079,-0.0395 0.0033,-0.0067 0.01344,-0.0087 0.0158,-0.0158 0.0016,-0.005 -0.0016,-0.0108 0,-0.0158 0.003,-0.009 0.01156,-0.01521 0.0158,-0.0237 0.0048,-0.0097 0.003,-0.02189 0.0079,-0.0316 0.0011,-0.0024 0.0067,0.0024 0.0079,0 0.0024,-0.0047 -0.0013,-0.01069 0,-0.0158 0.0095,-0.03814 0.0038,3.97e-4 0.0158,-0.0237 0.01632,-0.03264 0.0072,-0.01376 0.0158,-0.0395 0.0039,-0.01158 0.0191,-0.0178 0.02371,-0.0316 0.007,-0.02092 -0.02289,0.0095 0.0079,-0.03159 0.0035,-0.0047 0.01318,-0.0026 0.0158,-0.0079 0.0035,-0.0071 -0.0019,-0.01603 0,-0.0237 0.0046,-0.01824 0.02527,-0.03633 0.0316,-0.05529 0.0016,-0.005 -0.0037,-0.01207 0,-0.0158 0.0019,-0.0019 0.0067,0.0024 0.0079,0 0.0024,-0.0047 -0.0016,-0.0108 0,-0.0158 0.0011,-0.0035 0.0062,-0.0046 0.0079,-0.0079 0.0037,-0.0074 0.0033,-0.01677 0.0079,-0.0237 0.0016,-0.0022 0.006,0.0019 0.0079,0 0.0071,-0.0071 0.01095,-0.03769 0.01579,-0.04739 0.0026,-0.0053 0.01394,-0.0023 0.0158,-0.0079 0.0024,-0.0075 -0.0016,-0.01595 0,-0.0237 0.0024,-0.01155 0.0075,-0.02327 0.0158,-0.03159 0.0019,-0.0019 0.006,0.0019 0.0079,0 0.0019,-0.0019 -0.0019,-0.006 0,-0.0079 0.0019,-0.0019 0.006,0.0019 0.0079,0 0.0037,-0.0037 -0.0016,-0.0108 0,-0.0158 0.0037,-0.01104 0.01101,-0.02992 0.0158,-0.03949 -0.0021,-0.01669 0.01254,-0.003 0.0158,-0.0079 0.0113,-0.01697 0.01029,-0.03088 0.0158,-0.04739 0.0039,-0.01164 0.01992,-0.02024 0.02371,-0.0316 0.0016,-0.005 -0.0024,-0.01109 0,-0.0158 0.0011,-0.0024 0.006,0.0019 0.0079,0 0.0067,-0.0067 0.0073,-0.0231 0.0158,-0.0316 0.01265,-0.01265 0.01797,-0.03376 0.02371,-0.03949 0.0019,-0.0019 0.006,0.0019 0.0079,0 0.0037,-0.0037 -0.0037,-0.01208 0,-0.0158 0.01635,-0.01634 -5.29e-4,0.02497 0.0158,-0.0079 0.0011,-0.0024 -0.0019,-0.006 0,-0.0079 0.0019,-0.0019 0.006,0.0019 0.0079,0 0.0037,-0.0037 -0.0037,-0.01208 0,-0.0158 0.0019,-0.0019 0.0056,0.0012 0.0079,0 0.01392,-0.007 0.02011,-0.03232 0.02371,-0.03949 0.01643,-0.03287 -5.29e-4,0.0084 0.0158,-0.0079 0.0037,-0.0037 -0.0037,-0.01207 0,-0.0158 0.0039,-0.0039 0.01185,-0.0039 0.0158,-0.0079 0.0019,-0.0019 -0.0019,-0.006 0,-0.0079 0.0037,-0.0037 0.01206,0.0037 0.0158,0 0.0037,-0.0037 -0.0037,-0.01207 0,-0.0158 0.0037,-0.0037 0.01206,0.0037 0.0158,0 0.0039,-0.0039 0.0039,-0.01185 0.0079,-0.0158 0.0053,-0.0053 0.01053,0.0053 0.0158,0 0.0037,-0.0037 -0.0037,-0.01208 0,-0.0158 0.0037,-0.0037 0.01207,0.0037 0.0158,0 0.0019,-0.0019 -0.0019,-0.006 0,-0.0079 0.0033,-0.0033 0.04236,-0.0079 0.0316,-0.0079 -0.0049,0 -0.04337,-0.004 -0.0474,0 -0.0019,0.0019 0.0019,0.006 0,0.0079 -0.0037,0.0037 -0.01109,-0.0024 -0.01579,0 -0.03287,0.01644 0.0084,-5.56e-4 -0.0079,0.0158 -0.0026,0.0026 -0.02106,0.0053 -0.02371,0.0079 -5.29e-4,4.23e-4 -0.01537,0.02327 -0.0158,0.0237 -0.0046,0.0046 -0.02702,0.01122 -0.0316,0.0158 -0.0037,0.0037 0.0037,0.01208 0,0.0158 -0.0066,0.0066 -0.025,0.0013 -0.0316,0.0079 -0.0019,0.0019 0.0019,0.006 0,0.0079 -0.0019,0.0019 -0.0055,-0.0012 -0.0079,0 -0.03287,0.01644 0.0084,-5.56e-4 -0.0079,0.0158 -0.0039,0.0039 -0.01185,0.0039 -0.0158,0.0079 -0.0019,0.0019 0.0019,0.006 0,0.0079 -0.0037,0.0037 -0.01206,-0.0037 -0.0158,0 -5.29e-4,4.24e-4 -0.01537,0.02327 -0.0158,0.0237 -0.0039,0.004 -0.01185,0.004 -0.0158,0.0079 -0.0026,0.0026 -0.0053,0.02106 -0.0079,0.0237 -0.0031,0.0032 -0.01003,0.0043 -0.0158,0.0158 -0.0024,0.0047 0.0037,0.01207 0,0.0158 -0.0039,0.0039 -0.01185,0.0039 -0.0158,0.0079 -0.0059,0.0059 -0.0033,0.01677 -0.0079,0.0237 -0.0058,0.0087 -0.01902,0.01436 -0.02371,0.0237 -0.0024,0.0047 0.0037,0.01207 0,0.0158 -0.0016,0.0017 -0.01503,0.0064 -0.0158,0.0079 -0.0024,0.0047 0.0029,0.01142 0,0.0158 -0.0033,0.0049 -0.01164,0.0037 -0.0158,0.0079 -0.0053,0.0053 0.0053,0.01053 0,0.0158 -0.0019,0.0019 -0.006,-0.0019 -0.0079,0 -0.0026,0.0026 -0.0053,0.02106 -0.0079,0.0237 -0.0019,0.0019 -0.006,-0.0019 -0.0079,0 -0.0036,0.0036 -0.0127,0.02538 -0.0158,0.0316 -0.0024,0.0047 0.0037,0.01208 0,0.0158 -0.0019,0.0019 -0.006,-0.0019 -0.0079,0 -0.0063,0.0063 -0.01013,0.03382 -0.0158,0.0395 -0.0019,0.0019 -0.006,-0.0019 -0.0079,0 -0.0037,0.0037 0.0024,0.01109 0,0.0158 -0.0047,0.0095 -0.01897,0.01422 -0.02371,0.0237 -0.0024,0.0047 0.0024,0.01109 0,0.0158 -0.0072,0.01433 -0.01974,0.04342 -0.0316,0.05529 -0.0019,0.0019 -0.006,-0.0019 -0.0079,0 -0.0037,0.0037 0.0024,0.01109 0,0.0158 -0.0071,0.01425 -0.02466,0.02564 -0.03159,0.0395 -0.0042,0.0083 -0.0019,0.03349 -0.0079,0.03949 -0.0019,0.0019 -0.006,-0.0019 -0.0079,0 -0.0037,0.0037 0.0024,0.01109 0,0.0158 -0.0084,0.01685 -0.0074,-0.0011 -0.0158,0.0158 -0.0045,0.009 0.0016,0.02031 -0.0079,0.03949 -0.0036,0.0072 0.0053,0.02624 0,0.0316 -0.0019,0.0019 -0.006,-0.0019 -0.0079,0 -0.0024,0.0023 -0.0043,0.04022 -0.0079,0.04739 -0.0011,0.0024 -0.006,-0.0019 -0.0079,0 -0.0037,0.0037 0.0037,0.01207 0,0.0158 -0.0019,0.0019 -0.0067,-0.0024 -0.0079,0 -0.005,0.01007 -0.0038,0.05117 -0.0158,0.06319 -0.0019,0.0019 -0.006,-0.0019 -0.0079,0 -0.0056,0.0056 0.0035,0.01663 0,0.0237 -0.0011,0.0024 -0.006,-0.0019 -0.0079,0 -0.0056,0.0056 0.0035,0.01663 0,0.0237 -0.0011,0.0024 -0.006,-0.0019 -0.0079,0 -0.0039,0.004 0.0039,0.01975 0,0.0237 -0.0039,0.0039 -0.01185,0.0039 -0.01579,0.0079 -0.0037,0.0037 0.0024,0.01109 0,0.0158 -0.0057,0.01146 -0.02466,0.06414 -0.0316,0.07109 -0.0019,0.0019 -0.006,-0.0019 -0.0079,0 -0.0036,0.0036 -0.0034,0.03849 -0.0079,0.04739 -7.93e-4,0.0015 -0.01407,0.0062 -0.01579,0.0079 -0.0037,0.0037 0.0024,0.01893 0,0.0237 -0.0058,0.01152 -0.01265,0.01264 -0.0158,0.0158 -0.0037,0.0037 0.0024,0.01893 0,0.0237 -0.0046,0.0092 -0.01119,0.0145 -0.0158,0.0237 -0.0024,0.0047 0.0037,0.01207 0,0.0158 -0.0019,0.0019 -0.0067,-0.0024 -0.0079,0 -0.006,0.01208 -0.0062,0.04086 -0.0158,0.05529 -0.0016,0.0022 -0.006,-0.0019 -0.0079,0 -0.0042,0.0042 -0.0053,0.01053 -0.0079,0.0158 -0.0024,0.0047 0.0024,0.01109 0,0.0158 -0.006,0.01192 -0.0109,0.01686 -0.0158,0.0316 -0.0016,0.005 0.0037,0.01207 0,0.0158 -0.01865,0.01865 0.0042,-0.04406 -0.0158,0.0158 -0.005,0.01489 -0.0013,0.04223 -0.0079,0.05529 -0.0163,0.03259 -0.01712,0.05791 -0.0316,0.08689 -0.0042,0.0083 -0.0019,0.03349 -0.0079,0.0395 -0.0019,0.0019 -0.006,-0.0019 -0.0079,0 -0.0052,0.0052 -0.0039,0.02764 -0.0079,0.0316 -0.0019,0.0019 -0.006,-0.0019 -0.0079,0 -0.0037,0.0037 0.0024,0.01109 0,0.0158 -0.0016,0.0033 -0.0062,0.0046 -0.0079,0.0079 -0.0031,0.0062 0.0021,0.01704 0,0.0237 -0.01908,0.05721 0.0024,-0.01245 -0.0158,0.0237 -0.0024,0.0047 0.0037,0.01207 0,0.0158 -0.0019,0.0019 -0.006,-0.0019 -0.0079,0 -0.0037,0.0037 0.0024,0.01109 0,0.0158 -0.0062,0.01232 -0.01598,0.04758 -0.02371,0.05529 -0.0019,0.0019 -0.006,-0.0019 -0.0079,0 -0.0028,0.0028 -0.0038,0.04706 -0.0079,0.05529 -0.0033,0.0067 -0.01344,0.0087 -0.0158,0.0158 -0.0033,0.01 0.0047,0.02217 0,0.03159 -0.0011,0.0024 -0.006,-0.0019 -0.0079,0 -0.0026,0.0026 -0.0044,0.05629 -0.0079,0.06319 -0.0082,0.01636 -0.01561,0.03123 -0.02371,0.04739 -0.0033,0.0066 0.005,0.02659 0,0.0316 -0.0019,0.0019 -0.006,-0.0019 -0.0079,0 -0.0037,0.0037 0.0024,0.01109 0,0.0158 -0.0056,0.01124 -0.01019,0.0046 -0.0158,0.0158 -0.0024,0.0047 0.0024,0.01109 0,0.0158 -0.0046,0.0092 -0.01119,0.0145 -0.0158,0.0237 -0.0024,0.0048 0.0037,0.02005 0,0.0237 -0.0019,0.0019 -0.006,-0.0019 -0.0079,0 -0.0037,0.0037 0.0016,0.0108 0,0.0158 -0.0053,0.01582 -0.01905,0.02556 -0.02371,0.03949 -0.0016,0.005 0.0016,0.0108 0,0.0158 -0.006,0.01805 -0.02987,0.05975 -0.0395,0.07899 -0.0024,0.0048 0.0037,0.02004 0,0.0237 -0.0039,0.0039 -0.01185,0.0039 -0.0158,0.0079 -0.005,0.005 0.0033,0.02502 0,0.03159 -0.0068,0.01358 -0.009,0.02591 -0.01579,0.0395 -0.0031,0.0063 0.0031,0.01738 0,0.0237 -0.0059,0.01178 -0.01767,0.01955 -0.02371,0.0316 -0.0055,0.01092 -0.0035,0.03434 -0.0079,0.04739 -0.0024,0.0071 -0.01246,0.0091 -0.0158,0.0158 -0.0033,0.0066 0.005,0.02659 0,0.0316 -0.0019,0.0019 -0.006,-0.0019 -0.0079,0 -0.006,0.006 -0.0038,0.03121 -0.0079,0.0395 -0.01643,0.03287 5.3e-4,-0.0084 -0.0158,0.0079 -2.44e-4,2.42e-4 -0.01328,0.05023 -0.0158,0.05529 -0.01643,0.03287 5.29e-4,-0.0084 -0.0158,0.0079 -0.0037,0.0037 0.0024,0.01893 0,0.0237 -0.0084,0.01685 -0.0074,-0.0011 -0.0158,0.0158 -0.0024,0.0047 0.0037,0.01208 0,0.0158 -0.0019,0.0019 -0.006,-0.0019 -0.0079,0 -0.0056,0.0056 0.0035,0.01663 0,0.0237 -7.94e-4,0.0015 -0.01408,0.0062 -0.0158,0.0079 -0.0081,0.0081 -0.01434,0.04594 -0.02371,0.05529 -0.0019,0.0019 -0.006,-0.0019 -0.0079,0 -0.0037,0.0037 0.0037,0.01207 0,0.0158 -0.0019,0.0019 -0.006,-0.0019 -0.0079,0 -0.0016,0.0015 -0.0068,0.02819 -0.0079,0.03159 -0.0024,0.0071 -0.01246,0.0091 -0.0158,0.0158 -0.005,0.01008 -0.0052,0.07631 -0.0079,0.07899 -0.0019,0.0019 -0.0067,-0.0024 -0.0079,0 -0.0031,0.0063 0.0031,0.01738 0,0.0237 -0.007,0.01402 -0.0167,0.02547 -0.02371,0.0395 -0.009,0.01807 0.0016,0.03609 -0.0079,0.05529 -0.006,0.01192 -0.0109,0.01686 -0.0158,0.0316 -0.003,0.009 0.0042,0.02323 0,0.0316 -0.01246,0.02492 -0.01937,0.05454 -0.0316,0.07899 -0.0024,0.0048 0.0037,0.02005 0,0.0237 -0.0019,0.0019 -0.006,-0.0019 -0.0079,0 -0.0037,0.0037 0.0024,0.01893 0,0.0237 -0.0066,0.01312 -0.02371,0.04991 -0.02371,0.06319 0,0.01852 0.0019,-0.0037 -0.0079,0.0158 -0.0046,0.0093 -1.27e-4,0.03172 -0.0079,0.03949 -0.0016,0.0017 -0.01503,0.0064 -0.0158,0.0079 -0.0087,0.01741 7.94e-4,0.04592 -0.0079,0.06319 -0.0016,0.0033 -0.0062,0.0046 -0.0079,0.0079 -0.0035,0.0071 -0.0031,0.05054 -0.0079,0.05529 -0.0019,0.0019 -0.0067,-0.0024 -0.0079,0 0,0.03596 0.0037,4.5e-4 -0.0079,0.0237 -0.0042,0.0084 0.0042,0.02317 0,0.0316 -0.0016,0.0033 -0.0062,0.0046 -0.0079,0.0079 -0.0024,0.0048 0.0037,0.02004 0,0.0237 -0.0019,0.0019 -0.006,-0.0019 -0.0079,0 -0.0037,0.0037 0.0037,0.01207 0,0.0158 -0.0019,0.0019 -0.006,-0.0019 -0.0079,0 -0.0059,0.0059 -0.0021,0.01781 -0.0079,0.0237 -0.0019,0.0019 -0.006,-0.0019 -0.0079,0 -0.005,0.005 0.0033,0.02502 0,0.0316 -0.01397,0.02795 -0.01027,0.06004 -0.02371,0.08689 -0.0053,0.01053 0.0053,0.02896 0,0.0395 -0.0057,0.0114 -0.01011,0.02019 -0.0158,0.03159 -0.0051,0.01028 0.0027,0.02613 -0.0079,0.04739 -0.005,0.01 0.0076,0.03981 0,0.04739 -0.0019,0.0019 -0.006,-0.0019 -0.0079,0 -0.0037,0.0037 0.0037,0.01208 0,0.0158 -0.0019,0.0019 -0.0067,-0.0024 -0.0079,0 -0.0035,0.0071 0.0056,0.01811 0,0.0237 -0.0019,0.0019 -0.006,-0.0019 -0.0079,0 -0.0039,0.0039 0.0039,0.01975 0,0.0237 -0.0044,0.0044 -0.01204,0.0045 -0.01579,0.0158 -0.0016,0.005 0.0016,0.0108 0,0.0158 -0.0062,0.01876 -0.02276,0.03762 -0.0316,0.05529 -0.01643,0.03287 5.29e-4,-0.0084 -0.0158,0.0079 -0.0019,0.0019 0.0019,0.006 0,0.0079 -0.0019,0.0019 -0.006,-0.0019 -0.0079,0 -0.0019,0.0019 0.0019,0.006 0,0.0079 -0.0019,0.0019 -0.006,-0.0019 -0.0079,0 -0.0019,0.0019 0.0019,0.006 0,0.0079 -0.0037,0.0037 -0.01053,0 -0.0158,0"
           id="path9" />
      </g>
    </g>
  </g>
</svg>
