<?xml version="1.0" encoding="UTF-8" standalone="no"?>
<!-- Created with Inkscape (http://www.inkscape.org/) -->

<svg
   width="8mm"
   height="8mm"
   viewBox="0 0 8 8"
   version="1.1"
   id="svg1"
   inkscape:version="1.4 (86a8ad7, 2024-10-11)"
   sodipodi:docname="payload-yellow-torch.svg"
   xmlns:inkscape="http://www.inkscape.org/namespaces/inkscape"
   xmlns:sodipodi="http://sodipodi.sourceforge.net/DTD/sodipodi-0.dtd"
   xmlns="http://www.w3.org/2000/svg"
   xmlns:svg="http://www.w3.org/2000/svg">
  <sodipodi:namedview
     id="namedview1"
     pagecolor="#ffffff"
     bordercolor="#666666"
     borderopacity="1.0"
     inkscape:showpageshadow="2"
     inkscape:pageopacity="0.0"
     inkscape:pagecheckerboard="0"
     inkscape:deskcolor="#d1d1d1"
     inkscape:document-units="mm"
     inkscape:zoom="4.187009"
     inkscape:cx="0.23883398"
     inkscape:cy="73.202614"
     inkscape:window-width="1687"
     inkscape:window-height="1211"
     inkscape:window-x="123"
     inkscape:window-y="119"
     inkscape:window-maximized="0"
     inkscape:current-layer="layer1"
     showguides="false">
    <sodipodi:guide
       position="0.16567802,3.9999999"
       orientation="0,-1"
       id="guide2"
       inkscape:locked="false" />
    <sodipodi:guide
       position="2.4352305,6.86058"
       orientation="0,-1"
       id="guide4"
       inkscape:locked="false" />
    <sodipodi:guide
       position="2.4347377,1.1830963"
       orientation="0,-1"
       id="guide5"
       inkscape:locked="false" />
    <sodipodi:guide
       position="-0.6367346,4.6264235"
       orientation="0,-1"
       id="guide6"
       inkscape:locked="false" />
    <sodipodi:guide
       position="-1.1170782,3.319442"
       orientation="0,-1"
       id="guide7"
       inkscape:locked="false" />
  </sodipodi:namedview>
  <defs
     id="defs1">
    <inkscape:path-effect
       effect="spiro"
       id="path-effect4"
       is_visible="true"
       lpeversion="1" />
    <inkscape:path-effect
       effect="spiro"
       id="path-effect4-4"
       is_visible="true"
       lpeversion="1" />
  </defs>
  <g
     inkscape:label="Layer 1"
     inkscape:groupmode="layer"
     id="layer1">
    <g
       id="g17">
      <ellipse
         style="fill:none;stroke:#939393;stroke-width:0.331356;stroke-dasharray:none;stroke-opacity:1;paint-order:markers stroke fill"
         id="path1"
         cx="3.9999998"
         cy="4"
         rx="3.8343217"
         ry="3.834322" />
      <g
         id="g10"
         transform="rotate(-8.2073193,3.9157881,6.1373163)">
        <g
           id="g5"
           style="stroke-width:0.5;stroke-dasharray:none"
           transform="matrix(0.67398099,0,0,1.0077628,0.73793999,-0.03081713)">
          <path
             style="fill:none;stroke:#000000;stroke-width:0.531627;stroke-linecap:butt;stroke-linejoin:miter;stroke-dasharray:none;stroke-opacity:1"
             d="M 4.825778,3.9999999 C 4.7993594,3.5527505 4.6391608,3.1142509 4.3710476,2.7553006 4.1029344,2.3963503 3.7279193,2.1183051 3.3065516,1.9660577 3.2245511,1.9364295 3.1407725,1.9114106 3.0607944,1.8766915 2.7545724,1.7437583 2.5165241,1.4632014 2.4352306,1.1394198"
             id="path4"
             inkscape:path-effect="#path-effect4"
             inkscape:original-d="M 4.825778,3.9999999 C 4.3342636,3.3220191 3.8427493,2.6440385 3.3065516,1.9660577 2.7703542,1.288077 3.1129247,1.8915858 3.0607944,1.8766915 3.0086641,1.8617971 2.6586463,1.4000714 2.4352306,1.1394198"
             transform="matrix(0.88455723,0,0,1,0.28112978,0)" />
          <path
             style="fill:none;stroke:#000000;stroke-width:0.537541;stroke-linecap:butt;stroke-linejoin:miter;stroke-dasharray:none;stroke-opacity:1"
             d="M 4.825778,3.9999999 C 4.7993594,3.5527505 4.6391608,3.1142509 4.3710476,2.7553006 4.1029344,2.3963503 3.7279193,2.1183051 3.3065516,1.9660577 3.2245511,1.9364295 3.1407725,1.9114106 3.0607944,1.8766915 2.7545724,1.7437583 2.5165241,1.4632014 2.4352306,1.1394198"
             id="path4-8"
             inkscape:path-effect="#path-effect4-4"
             inkscape:original-d="M 4.825778,3.9999999 C 4.3342636,3.3220191 3.8427493,2.6440385 3.3065516,1.9660577 2.7703542,1.288077 3.1129247,1.8915858 3.0607944,1.8766915 3.0086641,1.8617971 2.6586463,1.4000714 2.4352306,1.1394198"
             inkscape:transform-center-x="0.37674823"
             inkscape:transform-center-y="1.4099647"
             transform="matrix(0.88362655,0,0,-0.9791459,0.28562104,7.9165834)" />
        </g>
        <path
           style="fill:none;stroke:#000000;stroke-width:0.21236;stroke-linecap:butt;stroke-linejoin:miter;stroke-dasharray:0.424722, 0.21236;stroke-dashoffset:0;stroke-opacity:1"
           d="M 2.452988,1.193941 1.4562109,4.274326"
           id="path5" />
        <path
           style="fill:none;stroke:#000000;stroke-width:0.201228;stroke-linecap:butt;stroke-linejoin:miter;stroke-dasharray:0.402458, 0.201228;stroke-dashoffset:0;stroke-opacity:1"
           d="M 1.5239409,4.1874572 2.3916018,6.9731173"
           id="path5-5" />
      </g>
      <path
         style="fill:none;stroke:#000000;stroke-width:0.512688;stroke-linecap:butt;stroke-linejoin:miter;stroke-dasharray:none;stroke-opacity:1"
         d="M 1.0154382,4.5138087 6.8934756,3.2275437"
         id="path7" />
      <ellipse
         style="fill:none;stroke:#000000;stroke-width:0.465;stroke-dasharray:none;stroke-dashoffset:0;stroke-opacity:1;paint-order:markers stroke fill"
         id="path8"
         cx="6.479054"
         cy="3.2842102"
         rx="0.25692794"
         ry="0.2625134" />
      <path
         style="fill:none;stroke:#000000;stroke-width:0.264583px;stroke-linecap:butt;stroke-linejoin:miter;stroke-opacity:1"
         d="M 1.4298602,4.2002143 C 1.236575,4.0570268 0.81189236,3.8539944 0.5026852,3.6528459"
         id="path11"
         sodipodi:nodetypes="cc" />
      <path
         style="fill:none;stroke:#000000;stroke-width:0.264583px;stroke-linecap:butt;stroke-linejoin:miter;stroke-opacity:1"
         d="M 1.0612243,4.4236298 0.53619757,4.1331895"
         id="path12" />
      <path
         style="fill:none;stroke:#000000;stroke-width:0.264583px;stroke-linecap:butt;stroke-linejoin:miter;stroke-opacity:1"
         d="M 1.0835659,4.5800208 0.71493009,5.038023"
         id="path13" />
      <path
         style="fill:none;stroke:#000000;stroke-width:0.264583px;stroke-linecap:butt;stroke-linejoin:miter;stroke-opacity:1"
         d="M 1.5527388,4.5353378 0.9048334,5.4178295"
         id="path14"
         sodipodi:nodetypes="cc" />
      <path
         style="fill:#000000;fill-opacity:1;stroke:#000000;stroke-width:0.05;stroke-linecap:butt;stroke-linejoin:miter;stroke-dasharray:none;stroke-opacity:1"
         d="M 4.8734336,3.2691706 5.8641799,3.1398932 c -0.00483,-0.052438 -0.017118,-0.10472 -0.014481,-0.1573135 3.731e-4,-0.00744 0.016791,0.00612 0.022314,0.00112 0.011046,-0.00999 -0.00881,-0.034636 0.00224,-0.044627 0.00553,-0.005 0.016791,0.00612 0.022314,0.00112 0.00553,-0.005 -0.00254,-0.015828 0.00112,-0.022314 0.010352,-0.018345 0.036513,-0.024045 0.046865,-0.042389 0.00366,-0.00648 -0.00441,-0.017319 0.00112,-0.022314 0.00553,-0.005 0.016791,0.00612 0.022314,0.00112 0.00545,-0.00493 -0.00288,-0.035552 0.00224,-0.044627 0.00518,-0.00917 0.018257,-0.012023 0.023433,-0.021195 0.00366,-0.00648 -0.00254,-0.015828 0.00112,-0.022314 0.00518,-0.00917 0.018257,-0.012023 0.023433,-0.021195 0.00366,-0.00648 -0.00441,-0.017319 0.00112,-0.022314 0.00553,-0.005 0.016791,0.00612 0.022314,0.00112 0.00553,-0.005 -0.00441,-0.017319 0.00112,-0.022314 0.00553,-0.005 0.016791,0.00612 0.022314,0.00112 0.011046,-0.00999 -0.00881,-0.034636 0.00224,-0.044627 0.00553,-0.005 0.014875,7.459e-4 0.022314,0.00112 3.731e-4,-0.00744 -0.00441,-0.017319 0.00112,-0.022314 0.00545,-0.00493 0.035085,0.00643 0.044627,0.00224 0.00964,-0.00423 0.013789,-0.016963 0.023433,-0.021195 0.00682,-0.00299 0.014875,7.459e-4 0.022313,0.00112 0.00744,3.731e-4 0.014875,7.459e-4 0.022314,0.00112 0.00744,3.731e-4 0.015495,0.00411 0.022314,0.00112 0.00964,-0.00423 0.013789,-0.016962 0.023433,-0.021195 0.00682,-0.00299 0.014875,7.459e-4 0.022314,0.00112 0.022314,0.00112 0.044627,0.00224 0.066941,0.00336 0.059502,0.00298 0.1190055,0.00597 0.1785082,0.00895 0.059503,0.00298 0.1190055,0.00597 0.1785084,0.00895 0.014875,7.459e-4 0.029752,0.00149 0.044627,0.00224 0.014875,7.459e-4 0.031655,-0.00508 0.044627,0.00224 0.00648,0.00366 -0.00612,0.016791 -0.00112,0.022314 0.00999,0.011046 0.034636,-0.00881 0.044627,0.00224 0.005,0.00553 -0.00612,0.016791 -0.00112,0.022314 0.00999,0.011046 0.034636,-0.00881 0.044627,0.00224 0.005,0.00553 -0.00612,0.016791 -0.00112,0.022314 0.005,0.00553 0.017319,-0.00441 0.022313,0.00112 0.005,0.00553 -0.00612,0.016791 -0.00112,0.022314 0.005,0.00553 0.017319,-0.00441 0.022314,0.00112 0.005,0.00553 -0.00612,0.016791 -0.00112,0.022314 0.005,0.00553 0.014875,7.459e-4 0.022314,0.00112 0.00744,3.731e-4 0.014875,7.459e-4 0.022314,0.00112 -0.00483,-0.052438 -0.010579,-0.1047981 -0.014487,-0.1573122 -5.528e-4,-0.00743 7.459e-4,-0.014875 0.00112,-0.022314 3.731e-4,-0.00744 7.459e-4,-0.014875 0.00112,-0.022314 0.00186,-0.037189 0.00373,-0.074379 0.00559,-0.1115676 7.459e-4,-0.014875 0.00149,-0.029752 0.00224,-0.044627 3.731e-4,-0.00744 0.00612,-0.016791 0.00112,-0.022314 -0.005,-0.00553 -0.017319,0.00441 -0.022314,-0.00112 -0.005,-0.00553 7.459e-4,-0.014875 0.00112,-0.022314 0.00112,-0.022314 0.00224,-0.044627 0.00336,-0.066941 3.731e-4,-0.00744 0.00612,-0.016791 0.00112,-0.022314 -0.005,-0.00553 -0.017319,0.00441 -0.022314,-0.00112 -0.005,-0.00553 7.459e-4,-0.014875 0.00112,-0.022313 3.731e-4,-0.00744 7.459e-4,-0.014875 0.00112,-0.022314 3.731e-4,-0.00744 0.00612,-0.016791 0.00112,-0.022314 -0.005,-0.00553 -0.017319,0.00441 -0.022313,-0.00112 -0.005,-0.00553 0.00411,-0.015495 0.00112,-0.022314 -0.00423,-0.00964 -0.016963,-0.013789 -0.021195,-0.023433 -0.00598,-0.013639 0.00822,-0.030988 0.00224,-0.044627 -0.00423,-0.00964 -0.016962,-0.013788 -0.021195,-0.023433 -0.00299,-0.00682 0.00411,-0.015494 0.00112,-0.022314 -0.00423,-0.00964 -0.016963,-0.013789 -0.021194,-0.023433 -0.00419,-0.00954 0.00717,-0.039172 0.00224,-0.044627 -0.00999,-0.011046 -0.034636,0.00881 -0.044627,-0.00224 -0.00999,-0.011046 0.012229,-0.033581 0.00224,-0.044627 -0.005,-0.00553 -0.017319,0.00441 -0.022313,-0.00112 -0.005,-0.00553 0.00612,-0.016791 0.00112,-0.022314 -0.005,-0.00553 -0.017319,0.00441 -0.022314,-0.00112 -0.005,-0.00553 0.00612,-0.016791 0.00112,-0.022314 -0.005,-0.00553 -0.015828,0.00254 -0.022314,-0.00112 -0.00917,-0.00518 -0.014129,-0.015621 -0.021195,-0.023433 -0.00707,-0.00781 -0.014129,-0.015621 -0.021195,-0.023433 -0.00707,-0.00781 -0.012023,-0.018257 -0.021195,-0.023433 -0.00648,-0.00366 -0.017319,0.00441 -0.022314,-0.00112 -0.005,-0.00553 0.00612,-0.016791 0.00112,-0.022314 -0.005,-0.00553 -0.015828,0.00254 -0.022314,-0.00112 -0.00917,-0.00518 -0.014129,-0.015621 -0.021194,-0.023433 -0.014129,-0.015621 -0.02826,-0.031243 -0.042389,-0.046865 -0.00707,-0.00781 -0.012023,-0.018257 -0.021194,-0.023433 -0.00648,-0.00366 -0.017319,0.00441 -0.022314,-0.00112 -0.005,-0.00553 0.00612,-0.016791 0.00112,-0.022314 -0.043853,-0.048483 -0.00173,0.070641 -0.043508,-0.024552 -0.00299,-0.00682 0.00612,-0.016791 0.00112,-0.022314 -0.005,-0.00553 -0.015828,0.00254 -0.022314,-0.00112 -0.00917,-0.00518 -0.014129,-0.015621 -0.021195,-0.023433 -0.00707,-0.00781 -0.016963,-0.013788 -0.021195,-0.023433 -0.00299,-0.00682 0.00612,-0.016791 0.00112,-0.022314 -0.005,-0.00553 -0.017319,0.00441 -0.022314,-0.00112 -0.005,-0.00553 0.00612,-0.016791 0.00112,-0.022314 -0.005,-0.00553 -0.015828,0.00254 -0.022314,-0.00112 -0.00917,-0.00518 -0.014129,-0.015621 -0.021195,-0.023433 -0.00707,-0.00781 -0.014129,-0.015621 -0.021195,-0.023433 -0.00707,-0.00781 -0.016963,-0.013789 -0.021195,-0.023433 -0.00299,-0.00682 0.00612,-0.016791 0.00112,-0.022314 -0.005,-0.00553 -0.015828,0.00254 -0.022314,-0.00112 -0.00917,-0.00518 -0.012023,-0.018257 -0.021195,-0.023433 -0.00648,-0.00366 -0.017319,0.00441 -0.022314,-0.00112 -0.005,-0.00553 0.00612,-0.016791 0.00112,-0.022314 -0.005,-0.00553 -0.015828,0.00254 -0.022313,-0.00112 -0.018345,-0.010352 -0.024045,-0.036513 -0.042389,-0.046865 -0.00648,-0.00366 -0.017319,0.00441 -0.022314,-0.00112 -0.005,-0.00553 0.00612,-0.016791 0.00112,-0.022314 -0.005,-0.00553 -0.015828,0.00254 -0.022314,-0.00112 -0.00917,-0.00518 -0.012023,-0.018257 -0.021195,-0.023433 -0.00648,-0.00366 -0.015828,0.00254 -0.022314,-0.00112 -0.018345,-0.010352 -0.024045,-0.036513 -0.042389,-0.046865 -0.00648,-0.00366 -0.015376,0.00159 -0.022314,-0.00112 -0.015514,-0.00605 -0.027994,-0.018501 -0.043508,-0.024552 -0.00694,-0.0027 -0.015828,0.00254 -0.022314,-0.00112 -0.00917,-0.00518 -0.011382,-0.019606 -0.021195,-0.023433 -0.013876,-0.00541 -0.031655,0.00508 -0.044627,-0.00224 -0.00648,-0.00366 0.00612,-0.016791 0.00112,-0.022314 -0.011171,-0.01235 -0.029006,-0.016367 -0.043508,-0.024552 -0.014502,-0.00819 -0.030133,-0.014632 -0.043508,-0.024552 -0.00846,-0.00627 -0.012023,-0.018257 -0.021195,-0.023433 -0.00648,-0.00366 -0.017319,0.00441 -0.022314,-0.00112 -0.005,-0.00553 0.0076,-0.018654 0.00112,-0.022314 -0.012972,-0.00732 -0.031655,0.00508 -0.044627,-0.00224 -0.00648,-0.00366 0.00612,-0.016791 0.00112,-0.022314 -0.005,-0.00553 -0.015828,0.00254 -0.022314,-0.00112 -0.00917,-0.00518 -0.012023,-0.018256 -0.021195,-0.023433 -0.00648,-0.00366 -0.015828,0.00254 -0.022314,-0.00112 -0.00917,-0.00518 -0.011382,-0.019606 -0.021195,-0.023433 -0.013876,-0.00541 -0.03075,0.00317 -0.044627,-0.00224 -0.00981,-0.00383 -0.011382,-0.019606 -0.021195,-0.023433 -0.013876,-0.00541 -0.03075,0.00317 -0.044627,-0.00224 -0.049028,0.0059 -0.00558,-0.0375623 -0.020076,-0.045746 -0.012972,-0.00732 -0.03075,0.003174 -0.044627,-0.002238 -0.00981,-0.003826 -0.012023,-0.0182566 -0.021195,-0.0234325 -0.00648,-0.003659 -0.014875,-7.459e-4 -0.022314,-0.001119 -0.014875,-7.459e-4 -0.030751,0.003174 -0.044627,-0.002238 -0.00981,-0.003826 -0.012023,-0.0182566 -0.021195,-0.0234325 -0.00648,-0.003659 -0.015828,0.00254 -0.022314,-0.001119 -0.00917,-0.005176 -0.012023,-0.0182565 -0.021195,-0.0234325 -0.00907,-0.005121 -0.039693,0.003217 -0.044627,-0.002238 -0.005,-0.005523 0.0076,-0.0186537 0.00112,-0.0223136 -0.012972,-0.00732 -0.029752,-0.001492 -0.044627,-0.002238 -0.00744,-3.731e-4 -0.014875,-7.4591e-4 -0.022314,-0.001119 -0.00744,-3.731e-4 -0.017318,0.004404 -0.022314,-0.001119 -0.005,-0.005523 0.00612,-0.0167903 0.00112,-0.0223136 -0.005,-0.005523 -0.014875,-7.4591e-4 -0.022314,-0.001119 -0.00744,-3.7311e-4 -0.014875,-7.4591e-4 -0.022314,-0.001119 -0.00744,-3.731e-4 -0.015828,0.002541 -0.022314,-0.001119 -0.00917,-0.005176 -0.012023,-0.0182565 -0.021195,-0.0234325 -0.00648,-0.003659 -0.014875,-7.4591e-4 -0.022314,-0.001119 -0.00744,-3.7311e-4 -0.014875,-7.4591e-4 -0.022313,-0.001119 -0.014875,-7.4591e-4 -0.030751,0.003174 -0.044627,-0.002238 -0.00981,-0.003826 -0.012023,-0.0182565 -0.021194,-0.0234324 -0.012972,-0.00732 -0.031655,0.005082 -0.044627,-0.002238 -0.00917,-0.005176 -0.012023,-0.0182565 -0.021194,-0.0234324 -0.00648,-0.003659 -0.014875,-7.4591e-4 -0.022314,-0.001119 -0.00744,-3.7311e-4 -0.014875,-7.4591e-4 -0.022314,-0.001119 -0.037189,-0.001865 -0.074378,-0.00373 -0.1115676,-0.005594 -0.00744,-3.731e-4 -0.014875,-7.459e-4 -0.022314,-0.001119 -0.00744,-3.731e-4 -0.015828,0.002541 -0.022314,-0.001119 -0.00917,-0.005176 -0.011382,-0.0196057 -0.021195,-0.0234325 -0.013876,-0.005412 -0.029752,-0.001492 -0.044627,-0.002238 -0.014875,-7.459e-4 -0.029752,-0.001492 -0.044627,-0.002238 -0.044627,-0.002238 -0.089254,-0.004476 -0.1338811,-0.006713 -0.029752,-0.001492 -0.059503,-0.002984 -0.089254,-0.004476 -0.00744,-3.731e-4 -0.014875,-7.459e-4 -0.022314,-0.001119 -0.00744,-3.731e-4 -0.015494,-0.004111 -0.022313,-0.001119 -0.00964,0.004232 -0.013789,0.0169623 -0.023433,0.0211946 -0.00954,0.004187 -0.039172,-0.007172 -0.044627,-0.002238 -0.00553,0.004995 -0.00612,0.0167903 -0.00112,0.0223136 0.005,0.005523 0.014875,7.4591e-4 0.022313,0.001119 0.044627,0.002238 0.089254,0.004476 0.1338812,0.006713 0.00744,3.731e-4 0.014875,7.4591e-4 0.022314,0.001119 0.00744,3.731e-4 0.015828,-0.00254 0.022314,0.001119 0.00917,0.005176 0.012023,0.0182566 0.021195,0.0234325 0.00648,0.003659 0.014875,7.4591e-4 0.022314,0.001119 0.014875,7.4591e-4 0.029752,0.001492 0.044627,0.002238 0.00744,3.731e-4 0.015828,-0.00254 0.022314,0.001119 0.00917,0.005176 0.012023,0.0182566 0.021194,0.0234324 0.00648,0.003659 0.014875,7.4591e-4 0.022314,0.001119 0.00744,3.731e-4 0.014875,7.4591e-4 0.022314,0.001119 0.00744,3.731e-4 0.015828,-0.002541 0.022313,0.001119 0.00917,0.005176 0.012023,0.0182566 0.021195,0.0234325 0.00648,0.003659 0.015376,-0.001587 0.022314,0.001119 0.015515,0.006051 0.027994,0.0185008 0.043508,0.0245513 0.00693,0.002706 0.015828,-0.00254 0.022314,0.001119 0.00917,0.005176 0.011382,0.0196058 0.021195,0.0234325 0.013876,0.005412 0.029752,0.001492 0.044627,0.002238 0.00744,3.7311e-4 0.015828,-0.002541 0.022314,0.001119 0.00917,0.005176 0.012023,0.0182566 0.021195,0.0234325 0.012972,0.00732 0.031655,-0.005082 0.044627,0.002238 0.00917,0.005176 0.012023,0.0182565 0.021195,0.0234325 0.00648,0.003659 0.017318,-0.004404 0.022314,0.001119 0.005,0.005523 -0.00612,0.0167902 -0.00112,0.0223136 0.005,0.005523 0.014875,7.4591e-4 0.022313,0.001119 0.00744,3.731e-4 0.014875,7.4591e-4 0.022314,0.001119 0.00744,3.731e-4 0.015828,-0.00254 0.022314,0.001119 0.00917,0.005176 0.011382,0.0196057 0.021194,0.0234324 0.013876,0.005412 0.029752,0.001492 0.044627,0.002238 0.00744,3.731e-4 0.014875,7.459e-4 0.022314,0.001119 0.00744,3.7312e-4 0.017319,-0.004408 0.022314,0.001119 0.005,0.00553 -0.00612,0.016791 -0.00112,0.022314 0.005,0.00553 0.014875,7.459e-4 0.022314,0.00112 0.00744,3.731e-4 0.014875,7.459e-4 0.022314,0.00112 0.00744,3.731e-4 0.017319,-0.00441 0.022314,0.00112 0.005,0.00553 -0.00612,0.016791 -0.00112,0.022314 0.005,0.00553 0.014875,7.459e-4 0.022313,0.00112 0.00744,3.731e-4 0.015376,-0.00159 0.022314,0.00112 0.015514,0.00605 0.027994,0.018501 0.043508,0.024552 0.00694,0.00271 0.015828,-0.00254 0.022314,0.00112 0.00917,0.00518 0.012023,0.018257 0.021195,0.023433 0.00648,0.00366 0.014875,7.459e-4 0.022314,0.00112 0.00744,3.731e-4 0.014875,7.459e-4 0.022314,0.00112 0.00744,3.731e-4 0.015828,-0.00254 0.022314,0.00112 0.00917,0.00518 0.012023,0.018257 0.021195,0.023433 0.00907,0.00512 0.039693,-0.00322 0.044627,0.00224 0.005,0.00553 -0.00612,0.016791 -0.00112,0.022314 0.005,0.00553 0.014875,7.459e-4 0.022314,0.00112 0.00744,3.731e-4 0.014875,7.459e-4 0.022314,0.00112 0.00744,3.731e-4 0.015828,-0.00254 0.022314,0.00112 0.018345,0.010352 0.024045,0.036513 0.042389,0.046865 0.00648,0.00366 0.017319,-0.00441 0.022314,0.00112 0.005,0.00553 -0.00612,0.016791 -0.00112,0.022314 0.00999,0.011046 0.034636,-0.00881 0.044627,0.00224 0.005,0.00553 -0.00612,0.016791 -0.00112,0.022314 0.00999,0.011046 0.034636,-0.00881 0.044627,0.00224 0.00999,0.011046 -0.012229,0.033581 -0.00224,0.044627 0.00999,0.011046 0.034636,-0.00881 0.044627,0.00224 0.005,0.00553 -0.00612,0.016791 -0.00112,0.022314 0.005,0.00553 0.017319,-0.00441 0.022314,0.00112 0.005,0.00553 -0.00612,0.016791 -0.00112,0.022314 0.005,0.00553 0.019321,-0.0057 0.022314,0.00112 0.00598,0.013639 -0.00822,0.030988 -0.00224,0.044627 0.00299,0.00682 0.015828,-0.00254 0.022314,0.00112 0.00917,0.00518 0.016963,0.013789 0.021195,0.023433 -0.00298,0.059502 -0.00707,-0.00781 0.021195,0.023433 0.00999,0.011046 -0.012229,0.033581 -0.00224,0.044627 0.005,0.00553 0.017319,-0.00441 0.022313,0.00112 0.005,0.00553 -0.00411,0.015494 -0.00112,0.022314 0.021398,0.048758 0.020992,-0.00189 0.042389,0.046865 0.00419,0.00954 -0.00717,0.039172 -0.00224,0.044627 0.005,0.00553 0.017319,-0.00441 0.022313,0.00112 0.005,0.00553 -0.00411,0.015495 -0.00112,0.022314 0.00423,0.00964 0.016963,0.013789 0.021195,0.023433 0.00299,0.00682 -7.459e-4,0.014875 -0.00112,0.022314 -3.731e-4,0.00744 -7.459e-4,0.014875 -0.00112,0.022314 -3.731e-4,0.00744 -0.00612,0.016791 -0.00112,0.022314 0.005,0.00553 0.017319,-0.00441 0.022314,0.00112 0.005,0.00553 -7.459e-4,0.014875 -0.00112,0.022314 -0.00112,0.022314 -0.00224,0.044627 -0.00336,0.066941 -3.731e-4,0.00744 0.00441,0.017319 -0.00112,0.022314 -0.00553,0.005 -0.015495,-0.00411 -0.022314,-0.00112 -0.095192,0.041775 0.023931,-3.42e-4 -0.024552,0.043508 -0.00553,0.005 -0.014875,-7.459e-4 -0.022313,-0.00112 -0.052065,-0.00261 -0.1041299,-0.00522 -0.1561947,-0.00783 -0.014875,-7.459e-4 -0.029752,-0.00149 -0.044627,-0.00224 -0.00744,-3.731e-4 -0.017319,0.00441 -0.022314,-0.00112 -0.005,-0.00553 0.00612,-0.016791 0.00112,-0.022314 -0.005,-0.00553 -0.015828,0.00254 -0.022314,-0.00112 -0.00917,-0.00518 -0.012023,-0.018257 -0.021195,-0.023433 -0.00648,-0.00366 -0.017318,0.00441 -0.022314,-0.00112 -0.005,-0.00553 0.00612,-0.016791 0.00112,-0.022314 -0.005,-0.00553 -0.017319,0.00441 -0.022313,-0.00112 -0.005,-0.00553 0.00612,-0.016791 0.00112,-0.022314 -0.005,-0.00553 -0.017319,0.00441 -0.022314,-0.00112 -0.00999,-0.011046 0.012229,-0.033581 0.00224,-0.044627 -0.005,-0.00553 -0.017319,0.00441 -0.022314,-0.00112 -0.005,-0.00553 0.00612,-0.016791 0.00112,-0.022314 -0.005,-0.00553 -0.017319,0.00441 -0.022313,-0.00112 -0.00999,-0.011046 0.012229,-0.033581 0.00224,-0.044627 -0.005,-0.00553 -0.017319,0.00441 -0.022314,-0.00112 -0.00493,-0.00545 0.00643,-0.035085 0.00224,-0.044627 -0.00423,-0.00964 -0.016963,-0.013788 -0.021195,-0.023433 -0.00299,-0.00682 0.00612,-0.016791 0.00112,-0.022314 -0.005,-0.00553 -0.017319,0.00441 -0.022314,-0.00112 -0.005,-0.00553 0.00612,-0.016791 0.00112,-0.022314 -0.005,-0.00553 -0.017319,0.00441 -0.022314,-0.00112 -0.005,-0.00553 0.00612,-0.016791 0.00112,-0.022314 -0.005,-0.00553 -0.017318,0.00441 -0.022314,-0.00112 -0.005,-0.00553 0.00612,-0.016791 0.00112,-0.022314 -0.005,-0.00553 -0.017319,0.00441 -0.022314,-0.00112 -0.00999,-0.011046 0.012229,-0.033581 0.00224,-0.044627 -0.00999,-0.011046 -0.034636,0.00881 -0.044627,-0.00224 -0.005,-0.00553 0.00612,-0.016791 0.00112,-0.022314 -0.005,-0.00553 -0.017319,0.00441 -0.022314,-0.00112 0.00298,-0.059502 0.00707,0.00781 -0.021195,-0.023433 -0.005,-0.00553 0.00612,-0.016791 0.00112,-0.022314 -0.005,-0.00553 -0.015828,0.00254 -0.022314,-0.00112 -0.00917,-0.00518 -0.012023,-0.018257 -0.021194,-0.023433 -0.00648,-0.00366 -0.017319,0.00441 -0.022314,-0.00112 -0.005,-0.00553 0.00612,-0.016791 0.00112,-0.022314 -0.005,-0.00553 -0.015828,0.00254 -0.022314,-0.00112 -0.00917,-0.00518 -0.012023,-0.018257 -0.021194,-0.023433 -0.00648,-0.00366 -0.014875,-7.46e-4 -0.022314,-0.00112 -0.00744,-3.731e-4 -0.014875,-7.459e-4 -0.022314,-0.00112 -0.00744,-3.731e-4 -0.015828,0.00254 -0.022314,-0.00112 -0.018345,-0.010352 -0.024045,-0.036513 -0.042389,-0.046865 -0.00648,-0.00366 -0.014875,-7.459e-4 -0.022314,-0.00112 -0.00744,-3.731e-4 -0.014875,-7.459e-4 -0.022314,-0.00112 -0.00744,-3.731e-4 -0.015375,0.00159 -0.022313,-0.00112 -0.075634,-0.029497 -0.01541,-0.023143 -0.065822,-0.025671 -0.022314,-0.00112 -0.044627,-0.00224 -0.066941,-0.00336 -0.00744,-3.731e-4 -0.017319,0.00441 -0.022314,-0.00112 -0.005,-0.00553 0.00612,-0.016791 0.00112,-0.022314 -0.005,-0.00553 -0.014875,-7.459e-4 -0.022314,-0.00112 -0.00744,-3.731e-4 -0.014875,-7.46e-4 -0.022314,-0.00112 -0.081816,-0.0041 -0.1636326,-0.00821 -0.2454489,-0.012308 -0.014875,-7.459e-4 -0.029752,-0.00149 -0.044627,-0.00224 -0.00744,-3.731e-4 -0.016791,-0.00612 -0.022314,-0.00112 -0.00553,0.005 0.00441,0.017319 -0.00112,0.022314 -0.00553,0.005 -0.02194,-0.00856 -0.022313,-0.00112 -3.731e-4,0.00744 0.017319,-0.00441 0.022313,0.00112 0.005,0.00553 -0.00612,0.016791 -0.00112,0.022314 0.00999,0.011046 0.034636,-0.00881 0.044627,0.00224 0.005,0.00553 -0.00612,0.016791 -0.00112,0.022314 0.005,0.00553 0.014875,7.459e-4 0.022313,0.00112 0.022314,0.00112 0.044627,0.00224 0.066941,0.00336 0.00744,3.731e-4 0.017319,-0.00441 0.022314,0.00112 0.005,0.00553 -0.00612,0.016791 -0.00112,0.022314 0.005,0.00553 0.014875,7.459e-4 0.022314,0.00112 0.022314,0.00112 0.044627,0.00224 0.066941,0.00336 0.00744,3.731e-4 0.017319,-0.00441 0.022314,0.00112 0.005,0.00553 -0.00612,0.016791 -0.00112,0.022314 0.005,0.00553 0.014875,7.459e-4 0.022314,0.00112 0.00744,3.731e-4 0.014875,7.46e-4 0.022314,0.00112 0.00744,3.731e-4 0.017319,-0.00441 0.022314,0.00112 0.043852,0.048483 -0.07046,-0.00535 0.020076,0.045746 0.012972,0.00732 0.031655,-0.00508 0.044627,0.00224 0.00917,0.00518 0.012023,0.018257 0.021195,0.023433 0.00907,0.00512 0.039693,-0.00322 0.044627,0.00224 0.005,0.00553 -0.00612,0.016791 -0.00112,0.022314 0.00493,0.00545 0.035552,-0.00288 0.044627,0.00224 0.00917,0.00518 0.014129,0.015621 0.021194,0.023433 0.00707,0.00781 0.01413,0.015621 0.021195,0.023433 0.00707,0.00781 0.012023,0.018257 0.021195,0.023433 0.00907,0.00512 0.039693,-0.00322 0.044627,0.00224 0.005,0.00553 -0.0076,0.018654 -0.00112,0.022314 0.012972,0.00732 0.031655,-0.00508 0.044627,0.00224 0.00648,0.00366 -0.00411,0.015494 -0.00112,0.022314 0.041775,0.095192 -3.419e-4,-0.023931 0.043508,0.024552 0.005,0.00553 -0.00612,0.016791 -0.00112,0.022314 0.005,0.00553 0.017319,-0.00441 0.022314,0.00112 0.005,0.00553 -0.00612,0.016791 -0.00112,0.022314 0.005,0.00553 0.017319,-0.00441 0.022314,0.00112 0.005,0.00553 -0.00612,0.016791 -0.00112,0.022314 0.005,0.00553 0.017319,-0.00441 0.022313,0.00112 0.005,0.00553 -0.00612,0.016791 -0.00112,0.022314 0.005,0.00553 0.017319,-0.00441 0.022314,0.00112 0.005,0.00553 -0.00411,0.015494 -0.00112,0.022314 0.00423,0.00964 0.016963,0.013789 0.021195,0.023433 0.00299,0.00682 -0.00612,0.016791 -0.00112,0.022314 0.005,0.00553 0.017319,-0.00441 0.022314,0.00112 0.005,0.00553 -0.00411,0.015494 -0.00112,0.022314 0.00423,0.00964 0.016963,0.013789 0.021195,0.023433 0.00299,0.00682 -0.00612,0.016791 -0.00112,0.022314 0.005,0.00553 0.017319,-0.00441 0.022314,0.00112 0.005,0.00553 -0.00411,0.015494 -0.00112,0.022314 0.00423,0.00964 0.016963,0.013789 0.021195,0.023433 0.00598,0.013639 -0.00822,0.030988 -0.00224,0.044627 0.00846,0.019288 0.033924,0.027577 0.042389,0.046865 0.00419,0.00954 -0.00717,0.039172 -0.00224,0.044627 0.005,0.00553 0.017319,-0.00441 0.022314,0.00112 0.005,0.00553 -7.459e-4,0.014875 -0.00112,0.022314 -3.731e-4,0.00744 -7.459e-4,0.014875 -0.00112,0.022314 -0.00298,0.059503 -0.00597,0.1190055 -0.00895,0.1785082 -0.00112,0.022314 -0.00224,0.044627 -0.00336,0.066941 -3.731e-4,0.00744 0.00254,0.015828 -0.00112,0.022314 -0.015169,0.026882 -0.022662,0.021234 -0.045746,0.020076 -0.00744,-3.731e-4 -0.016791,-0.00612 -0.022314,-0.00112 -0.00553,0.005 0.00441,0.017319 -0.00112,0.022314 -0.00553,0.005 -0.014875,-7.459e-4 -0.022314,-0.00112 -0.00744,-3.731e-4 -0.014875,-7.459e-4 -0.022314,-0.00112 -0.044627,-0.00224 -0.089254,-0.00448 -0.1338811,-0.00671 -0.014875,-7.459e-4 -0.029752,-0.00149 -0.044627,-0.00224 -0.00744,-3.731e-4 -0.015828,0.00254 -0.022314,-0.00112 C 5.1165523,2.247643 5.1136993,2.234567 5.1045273,2.22939 5.0980473,2.22573 5.0872083,2.2338 5.0822133,2.22827 5.0539533,2.197027 5.1205213,2.207821 5.0610183,2.204837 c -0.052329,-0.00262 0.010255,0.00579 -0.043508,-0.024552 -0.00648,-0.00366 -0.017319,0.00441 -0.022314,-0.00112 -0.005,-0.00553 0.00612,-0.016791 0.00112,-0.022314 -0.005,-0.00553 -0.017319,0.00441 -0.022313,-0.00112 -0.00999,-0.011046 0.012229,-0.033581 0.00224,-0.044627 -0.005,-0.00553 -0.015828,0.00254 -0.022314,-0.00112 -0.048099,-0.027142 -0.00623,-0.014196 -0.020076,-0.045746 -0.00423,-0.00964 -0.016963,-0.013789 -0.021194,-0.023433 -0.00299,-0.00682 0.00612,-0.016791 0.00112,-0.022314 -0.005,-0.00553 -0.017319,0.00441 -0.022314,-0.00112 -0.00999,-0.011046 0.012229,-0.033581 0.00224,-0.044627 -0.005,-0.00553 -0.019321,0.0057 -0.022314,-0.00112 -0.00598,-0.013639 0.00822,-0.030988 0.00224,-0.044627 -0.00299,-0.00682 -0.017319,0.00441 -0.022313,-0.00112 -0.005,-0.00553 0.00411,-0.015495 0.00112,-0.022314 -0.00423,-0.00964 -0.016963,-0.013789 -0.021195,-0.023433 -0.00419,-0.00954 0.00717,-0.039172 0.00224,-0.044627 -0.005,-0.00553 -0.017319,0.00441 -0.022314,-0.00112 -0.00999,-0.011046 0.012229,-0.033581 0.00224,-0.044627 -0.005,-0.00553 -0.015828,0.00254 -0.022314,-0.00112 -0.090535,-0.051088 0.023777,0.00273 -0.020076,-0.045746 -0.005,-0.00553 -0.017319,0.00441 -0.022314,-0.00112 -0.005,-0.00553 0.00612,-0.016791 0.00112,-0.022314 -0.005,-0.00553 -0.017319,0.00441 -0.022314,-0.00112 -0.005,-0.00553 0.00612,-0.016791 0.00112,-0.022314 -0.00999,-0.011046 -0.034636,0.00881 -0.044627,-0.00224 -0.00999,-0.011046 0.012229,-0.033581 0.00224,-0.044627 -0.005,-0.00553 -0.015828,0.00254 -0.022314,-0.00112 -0.00917,-0.00518 -0.012023,-0.018257 -0.021195,-0.023433 -0.00648,-0.00366 -0.017319,0.00441 -0.022314,-0.00112 -0.005,-0.00553 0.00612,-0.016791 0.00112,-0.022314 -0.00999,-0.011046 -0.034636,0.00881 -0.044627,-0.00224 -0.005,-0.00553 0.00612,-0.016791 0.00112,-0.022314 -0.005,-0.00553 -0.014875,-7.459e-4 -0.022314,-0.00112 -0.014875,-7.459e-4 -0.029752,-0.00149 -0.044627,-0.00224 -0.00744,-3.731e-4 -0.017319,0.00441 -0.022314,-0.00112 -0.005,-0.00553 0.00612,-0.016791 0.00112,-0.022314 C 4.4848993,1.54429 4.4740723,1.55236 4.4675863,1.5487 4.4584163,1.54352 4.4555633,1.530443 4.4463913,1.525267 4.4334193,1.517947 4.4147363,1.530347 4.4017643,1.523027 4.3925943,1.517847 4.3897413,1.50477 4.3805693,1.499594 4.3675973,1.492274 4.3489143,1.504674 4.3359423,1.497354 4.3267723,1.492174 4.3239193,1.479098 4.3147473,1.473921 4.2389183,1.431131 4.3459493,1.514474 4.2701203,1.471681 4.2517753,1.461329 4.2460753,1.435168 4.2277313,1.424816 c -0.00648,-0.00366 -0.015828,0.00254 -0.022314,-0.00112 -0.00917,-0.00518 -0.011382,-0.019606 -0.021195,-0.023433 -0.013876,-0.00541 -0.029752,-0.00149 -0.044627,-0.00224 -0.00744,-3.731e-4 -0.014875,-7.459e-4 -0.022314,-0.00112 -0.00744,-3.731e-4 -0.017319,0.00441 -0.022314,-0.00112 -0.005,-0.00553 0.00612,-0.016791 0.00112,-0.022314 -0.005,-0.00553 -0.014875,-7.46e-4 -0.022314,-0.00112 -0.00744,-3.731e-4 -0.014875,-7.459e-4 -0.022314,-0.00112 -0.00744,-3.731e-4 -0.017319,0.00441 -0.022314,-0.00112 -0.043853,-0.048483 0.07046,0.00535 -0.020076,-0.045746 -0.012972,-0.00732 -0.031655,0.00508 -0.044627,-0.00224 C 3.9552723,1.316943 3.9524193,1.303866 3.9432473,1.29869 3.9302753,1.29137 3.9115923,1.30377 3.8986203,1.29645 3.8894503,1.29127 3.8865973,1.278193 3.8774253,1.273017 c -0.00648,-0.00366 -0.014875,-7.459e-4 -0.022314,-0.00112 -0.022314,-0.00112 -0.044627,-0.00224 -0.066941,-0.00336 -0.00744,-3.731e-4 -0.015828,0.00254 -0.022314,-0.00112 -0.00917,-0.00518 -0.012023,-0.018257 -0.021195,-0.023433 -0.00648,-0.00366 -0.014875,-7.459e-4 -0.022314,-0.00112 -0.00744,-3.731e-4 -0.014875,-7.459e-4 -0.022314,-0.00112 -0.00744,-3.731e-4 -0.017319,0.00441 -0.022314,-0.00112 -0.02826,-0.031243 0.038308,-0.020449 -0.021195,-0.023433 -0.052065,-0.00261 -0.1041298,-0.00522 -0.1561947,-0.00783 -0.00744,-3.731e-4 -0.014875,-7.459e-4 -0.022314,-0.00112 -0.00744,-3.731e-4 -0.021941,-0.00856 -0.022314,-0.00112 -1.062e-4,0.00212 0.064774,9.652e-4 0.066941,0.00336 0.005,0.00553 -0.00612,0.016791 -0.00112,0.022314 0.005,0.00553 0.014875,7.46e-4 0.022314,0.00112 0.00744,3.731e-4 0.014875,7.459e-4 0.022314,0.00112 0.00744,3.731e-4 0.015828,-0.00254 0.022314,0.00112 0.00917,0.00518 0.012023,0.018257 0.021195,0.023433 0.00648,0.00366 0.015828,-0.00254 0.022314,0.00112 0.00917,0.00518 0.011382,0.019606 0.021195,0.023433 0.013876,0.00541 0.030751,-0.00317 0.044627,0.00224 0.068483,0.026708 -0.00819,0.014502 0.020076,0.045746 0.005,0.00553 0.014875,7.459e-4 0.022314,0.00112 0.00744,3.731e-4 0.014875,7.46e-4 0.022314,0.00112 0.00744,3.731e-4 0.017319,-0.00441 0.022314,0.00112 0.005,0.00553 -0.00612,0.016791 -0.00112,0.022314 0.00999,0.011046 0.034636,-0.00881 0.044627,0.00224 0.005,0.00553 -0.00612,0.016791 -0.00112,0.022314 0.00493,0.00545 0.035552,-0.00288 0.044627,0.00224 0.00917,0.00518 0.012023,0.018257 0.021195,0.023433 0.00648,0.00366 0.017319,-0.00441 0.022314,0.00112 0.005,0.00553 -0.00612,0.016791 -0.00112,0.022314 0.005,0.00553 0.015376,-0.00159 0.022314,0.00112 0.015514,0.00605 0.027994,0.018501 0.043508,0.024552 0.00694,0.00271 0.017319,-0.00441 0.022314,0.00112 0.005,0.00553 -0.00612,0.016791 -0.00112,0.022314 0.00493,0.00545 0.035552,-0.00288 0.044627,0.00224 0.018345,0.010352 0.024045,0.036513 0.042389,0.046865 0.00648,0.00366 0.015375,-0.00158 0.022314,0.00112 0.015514,0.00605 0.027994,0.018501 0.043508,0.024552 0.00693,0.0027 0.014875,7.459e-4 0.022314,0.00112 0.00744,3.731e-4 0.017319,-0.00441 0.022314,0.00112 0.005,0.00553 -0.00612,0.016791 -0.00112,0.022314 0.00493,0.00545 0.035552,-0.00288 0.044627,0.00224 0.00917,0.00518 0.012023,0.018257 0.021195,0.023433 0.00648,0.00366 0.017319,-0.00441 0.022314,0.00112 0.005,0.00553 -0.00411,0.015495 -0.00112,0.022314 0.041775,0.095192 -3.42e-4,-0.023931 0.043508,0.024552 0.005,0.00553 -0.00612,0.016791 -0.00112,0.022314 0.00999,0.011046 0.034636,-0.00881 0.044627,0.00224 0.005,0.00553 -0.00612,0.016791 -0.00112,0.022314 0.00999,0.011046 0.034636,-0.00881 0.044627,0.00224 0.00999,0.011046 -0.012229,0.033581 -0.00224,0.044627 0.005,0.00553 0.015828,-0.00254 0.022314,0.00112 0.090535,0.051088 -0.023777,-0.00273 0.020076,0.045746 0.00967,0.010695 0.039457,-0.00954 0.044627,0.00224 0.00598,0.013639 -0.00822,0.030988 -0.00224,0.044627 0.00299,0.00682 0.015828,-0.00254 0.022314,0.00112 0.00917,0.00518 0.014129,0.015621 0.021194,0.023433 0.00707,0.00781 0.016963,0.013788 0.021195,0.023433 0.00299,0.00682 -0.00612,0.016791 -0.00112,0.022314 0.005,0.00553 0.017318,-0.00441 0.022314,0.00112 0.005,0.00553 -0.00612,0.016791 -0.00112,0.022314 0.005,0.00553 0.017319,-0.00441 0.022313,0.00112 0.005,0.00553 -0.00612,0.016791 -0.00112,0.022314 0.005,0.00553 0.017319,-0.00441 0.022314,0.00112 0.00493,0.00545 -0.00643,0.035085 -0.00224,0.044627 0.00423,0.00964 0.016963,0.013789 0.021195,0.023433 0.00299,0.00682 -0.00612,0.016791 -0.00112,0.022314 0.043853,0.048482 0.00173,-0.070641 0.043508,0.024552 0.00419,0.00954 -0.00717,0.039172 -0.00224,0.044627 0.005,0.00553 0.014875,7.459e-4 0.022314,0.00112 -3.731e-4,0.00744 -0.00411,0.015494 -0.00112,0.022313 0.00423,0.00964 0.016963,0.013789 0.021195,0.023433 0.00419,0.00954 -0.00717,0.039172 -0.00224,0.044627 0.005,0.00553 0.017319,-0.00441 0.022314,0.00112 0.00999,0.011046 -0.012229,0.033581 -0.00224,0.044627 0.005,0.00553 0.017319,-0.00441 0.022314,0.00112 0.005,0.00553 -7.459e-4,0.014875 -0.00112,0.022314 -0.00112,0.022314 -0.00224,0.044627 -0.00336,0.066941 -7.459e-4,0.014875 -0.00149,0.029752 -0.00224,0.044627 -3.731e-4,0.00744 0.00254,0.015828 -0.00112,0.022314 -0.00518,0.00917 -0.018257,0.012023 -0.023433,0.021195 -0.00366,0.00648 0.00441,0.017319 -0.00112,0.022314 -0.00553,0.005 -0.016791,-0.00612 -0.022314,-0.00112 -0.015707,0.014207 0.01347,0.03042 -0.00224,0.044627 -0.00553,0.005 -0.016791,-0.00612 -0.022314,-0.00112 -0.00553,0.005 0.00441,0.017319 -0.00112,0.022314 -0.00553,0.005 -0.015495,-0.00411 -0.022314,-0.00112 -0.00964,0.00423 -0.013789,0.016963 -0.023433,0.021195 -0.00341,0.00149 -0.039743,-0.00359 -0.044627,-0.00224 -0.016042,0.00447 -0.029704,0.015608 -0.045746,0.020076 -0.00718,0.00199 -0.016791,-0.00612 -0.022314,-0.00112 -0.00553,0.005 0.00441,0.017319 -0.00112,0.022314 -0.00553,0.005 -0.014875,-7.459e-4 -0.022314,-0.00112 -0.022313,-0.00112 -0.044627,-0.00224 -0.066941,-0.00336 -0.00744,-3.731e-4 -0.017319,0.00441 -0.022313,-0.00112 -0.005,-0.00553 0.00612,-0.016791 0.00112,-0.022314 -0.005,-0.00553 -0.015828,0.00254 -0.022314,-0.00112 -0.00917,-0.00518 -0.012023,-0.018257 -0.021195,-0.023433 -0.00908,-0.00512 -0.039693,0.00322 -0.044627,-0.00224 -0.005,-0.00553 0.00612,-0.016791 0.00112,-0.022314 -0.005,-0.00553 -0.017319,0.00441 -0.022313,-0.00112 -0.043853,-0.048482 0.07046,0.00535 -0.020076,-0.045746 -0.00648,-0.00366 -0.015828,0.00254 -0.022314,-0.00112 -0.00917,-0.00518 -0.014129,-0.015621 -0.021194,-0.023433 -0.00707,-0.00781 -0.016963,-0.013789 -0.021195,-0.023433 -0.00419,-0.00954 0.00717,-0.039172 0.00224,-0.044627 -0.005,-0.00553 -0.017319,0.00441 -0.022314,-0.00112 -0.005,-0.00553 0.00612,-0.016791 0.00112,-0.022314 -0.005,-0.00553 -0.017319,0.00441 -0.022313,-0.00112 -0.005,-0.00553 0.00612,-0.016791 0.00112,-0.022314 -0.005,-0.00553 -0.017319,0.00441 -0.022314,-0.00112 -0.005,-0.00553 0.00612,-0.016791 0.00112,-0.022314 -0.005,-0.00553 -0.017319,0.00441 -0.022314,-0.00112 -0.00999,-0.011046 0.012229,-0.033581 0.00224,-0.044627 -0.005,-0.00553 -0.017319,0.00441 -0.022314,-0.00112 -0.005,-0.00553 0.00612,-0.016791 0.00112,-0.022314 -0.005,-0.00553 -0.017319,0.00441 -0.022314,-0.00112 -0.00999,-0.011046 0.012229,-0.033581 0.00224,-0.044627 -0.005,-0.00553 -0.017318,0.00441 -0.022314,-0.00112 -0.005,-0.00553 0.00411,-0.015495 0.00112,-0.022314 -0.00423,-0.00964 -0.016962,-0.013789 -0.021195,-0.023433 -0.00299,-0.00682 0.00612,-0.016791 0.00112,-0.022314 -0.043852,-0.048482 -0.00173,0.070641 -0.043508,-0.024551 -0.00299,-0.00682 0.00411,-0.015495 0.00112,-0.022314 -0.00846,-0.019288 -0.033924,-0.027577 -0.042389,-0.046865 -0.00419,-0.00954 0.00717,-0.039172 0.00224,-0.044627 -0.00999,-0.011046 -0.034636,0.00881 -0.044627,-0.00224 -0.00999,-0.011046 0.012229,-0.033581 0.00224,-0.044627 -0.005,-0.00553 -0.017319,0.00441 -0.022314,-0.00112 -0.00999,-0.011046 0.012229,-0.033581 0.00224,-0.044627 -0.005,-0.00553 -0.017319,0.00441 -0.022314,-0.00112 -0.00999,-0.011046 0.012229,-0.033581 0.00224,-0.044627 -0.005,-0.00553 -0.017319,0.00441 -0.022314,-0.00112 -0.005,-0.00553 0.00612,-0.016791 0.00112,-0.022314 -0.005,-0.00553 -0.017319,0.00441 -0.022314,-0.00112 -0.00999,-0.011046 0.012229,-0.033581 0.00224,-0.044627 -0.005,-0.00553 -0.017319,0.00441 -0.022314,-0.00112 -0.005,-0.00553 7.459e-4,-0.014875 0.00112,-0.022314 3.731e-4,-0.00744 -0.00441,-0.017319 0.00112,-0.022314 0.01616,-0.014617 0.040895,0.018596 0.043508,0.024552 0.00299,0.00682 -0.00612,0.016791 -0.00112,0.022314 0.005,0.00553 0.017319,-0.00441 0.022314,0.00112 0.043852,0.048483 -0.07046,-0.00535 0.020076,0.045746 0.00648,0.00366 0.017319,-0.00441 0.022314,0.00112 0.005,0.00553 -7.459e-4,0.014875 -0.00112,0.022314 -0.00298,0.059502 -0.00707,-0.00781 0.021195,0.023433 0.005,0.00553 -7.459e-4,0.014875 -0.00112,0.022314 -0.00298,0.059503 -0.00597,0.1190055 -0.00895,0.1785082 -3.731e-4,0.00744 -7.459e-4,0.014875 -0.00112,0.022314 -3.731e-4,0.00744 -0.00612,0.016791 -0.00112,0.022313 0.005,0.00553 0.017319,-0.00441 0.022314,0.00112 0.005,0.00553 -7.459e-4,0.014875 -0.00112,0.022314 -7.459e-4,0.014875 -0.00149,0.029752 -0.00224,0.044627 -0.00448,0.089254 -0.00895,0.1785084 -0.013427,0.2677624 -3.731e-4,0.00744 -7.459e-4,0.014875 -0.00112,0.022314 -3.731e-4,0.00744 -0.00612,0.016791 -0.00112,0.022314 0.005,0.00553 0.017319,-0.00441 0.022314,0.00112 0.005,0.00553 -7.459e-4,0.014875 -0.00112,0.022314 -0.00112,0.022314 -0.00224,0.044627 -0.00336,0.066941 -3.731e-4,0.00744 -7.459e-4,0.014875 -0.00112,0.022314 -3.731e-4,0.00744 -0.00612,0.016791 -0.00112,0.022314 0.005,0.00553 0.017319,-0.00441 0.022314,0.00112 0.005,0.00553 -0.00612,0.016791 -0.00112,0.022314 0.005,0.00553 0.017319,-0.00441 0.022314,0.00112 0.005,0.00553 -0.00411,0.015495 -0.00112,0.022314 0.00423,0.00964 0.016963,0.013789 0.021195,0.023433 0.00419,0.00954 -0.00717,0.039172 -0.00224,0.044627 0.005,0.00553 0.014875,7.459e-4 0.022314,0.00112 0.00744,3.731e-4 0.014875,7.459e-4 0.022314,0.00112 0.00744,3.731e-4 0.017319,-0.00441 0.022314,0.00112 0.005,0.00553 -0.00612,0.016791 -0.00112,0.022314 0.059502,0.00298 -0.00707,-0.00781 0.021195,0.023433 0.005,0.00553 0.017319,-0.00441 0.022314,0.00112 0.005,0.00553 -0.00612,0.016791 -0.00112,0.022314 0.005,0.00553 0.015828,-0.00254 0.022314,0.00112 0.090535,0.051088 -0.023777,-0.00273 0.020075,0.045746 0.005,0.00553 0.017319,-0.00441 0.022314,0.00112 0.005,0.00553 -0.00612,0.016791 -0.00112,0.022314 0.005,0.00553 0.017319,-0.00441 0.022314,0.00112 0.00999,0.011046 -0.012229,0.033581 -0.00224,0.044627 0.005,0.00553 0.017319,-0.00441 0.022313,0.00112 0.005,0.00553 -0.00612,0.016791 -0.00112,0.022314 0.005,0.00553 0.017319,-0.00441 0.022314,0.00112 0.005,0.00553 -0.00612,0.016791 -0.00112,0.022313 0.005,0.00553 0.017319,-0.00441 0.022314,0.00112 0.011171,0.01235 0.0089,0.033396 0.020075,0.045746 0.005,0.00553 0.017319,-0.00441 0.022314,0.00112 0.005,0.00553 -0.00612,0.016791 -0.00112,0.022314 0.005,0.00553 0.017319,-0.00441 0.022314,0.00112 0.005,0.00553 -0.00612,0.016791 -0.00112,0.022314 0.005,0.00553 0.015828,-0.00254 0.022314,0.00112 0.00917,0.00518 0.011382,0.019606 0.021195,0.023433 0.013876,0.00541 0.031655,-0.00508 0.044627,0.00224 0.00648,0.00366 -0.00411,0.015495 -0.00112,0.022314 0.012404,0.028264 0.020424,0.023394 0.043508,0.024552 0.00744,3.731e-4 0.017319,-0.00441 0.022314,0.00112 0.005,0.00553 -0.00612,0.016791 -0.00112,0.022314 0.005,0.00553 0.014875,7.459e-4 0.022314,0.00112 0.022313,0.00112 0.044627,0.00224 0.066941,0.00336 0.00744,3.731e-4 0.017319,-0.00441 0.022314,0.00112 0.005,0.00553 -0.00612,0.016791 -0.00112,0.022314 0.005,0.00553 0.014875,7.459e-4 0.022314,0.00112 0.014875,7.459e-4 0.029752,0.00149 0.044627,0.00224 0.014875,7.459e-4 0.031655,-0.00508 0.044627,0.00224 0.00648,0.00366 -0.00612,0.016791 -0.00112,0.022314 0.005,0.00553 0.015265,-0.00129 0.022314,0.00112 0.044583,0.015191 0.087762,0.034227 0.1316434,0.05134 z"
         id="path17" />
    </g>
  </g>
</svg>
